<?xml version="1.0" encoding="UTF-8" standalone="no"?>
<svg xmlns="http://www.w3.org/2000/svg" xmlns:xlink="http://www.w3.org/1999/xlink"  version="1.2" baseProfile="tiny">
<title>pyqtgraph SVG export</title>
<desc>Generated with Qt and pyqtgraph</desc>
<defs>
</defs>
<g fill="none" fill-rule="evenodd" id="PlotItem_1" stroke="black" stroke-linecap="square" stroke-linejoin="bevel" stroke-width="1">
    <g fill="none" fill-rule="evenodd" id="AxisItem_1" stroke="black" stroke-linecap="square" stroke-linejoin="bevel" stroke-width="1">
        <g fill="none" font-family="MS Shell Dlg 2" font-size="11" font-style="normal" font-weight="400" stroke="#969696" stroke-linecap="square" stroke-linejoin="bevel" stroke-opacity="1" stroke-width="1">
            <polyline fill="none" points="36.0,41.0 610.0,41.0" vector-effect="non-scaling-stroke"/>
        </g>
        <g fill="none" font-family="MS Shell Dlg 2" font-size="11" font-style="normal" font-weight="400" stroke="#969696" stroke-linecap="square" stroke-linejoin="bevel" stroke-opacity="1" stroke-width="1">
            <polyline fill="none" points="102.9788,41.0 102.9788,36.0" vector-effect="non-scaling-stroke"/>
        </g>
        <g fill="none" font-family="MS Shell Dlg 2" font-size="11" font-style="normal" font-weight="400" stroke="#969696" stroke-linecap="square" stroke-linejoin="bevel" stroke-opacity="0.498039" stroke-width="1">
            <polyline fill="none" points="281.789,41.0 281.789,37.66667" vector-effect="non-scaling-stroke"/>
            <polyline fill="none" points="460.598,41.0 460.598,37.66667" vector-effect="non-scaling-stroke"/>
        </g>
        <g fill="none" font-family="MS Shell Dlg 2" font-size="11" font-style="normal" font-weight="400" stroke="#969696" stroke-linecap="square" stroke-linejoin="bevel" stroke-opacity="0.333333" stroke-width="1">
            <polyline fill="none" points="192.384,41.0 192.384,38.5" vector-effect="non-scaling-stroke"/>
            <polyline fill="none" points="371.193,41.0 371.193,38.5" vector-effect="non-scaling-stroke"/>
            <polyline fill="none" points="550.003,41.0 550.003,38.5" vector-effect="non-scaling-stroke"/>
        </g>
        <g fill="none" font-family="MS Shell Dlg 2" font-size="11" font-style="normal" font-weight="400" stroke="#969696" stroke-linecap="square" stroke-linejoin="bevel" stroke-opacity="1" stroke-width="1" transform="matrix(1,0,0,1,36.5,41)">
            <text fill="#969696" fill-opacity="1" font-family="&quot;MS Shell Dlg 2&quot;, sans-serif" font-size="11" font-style="normal" font-weight="400" stroke="none" x="49.4688" xml:space="preserve" y="12">0.0014</text>
            <text fill="#969696" fill-opacity="1" font-family="&quot;MS Shell Dlg 2&quot;, sans-serif" font-size="11" font-style="normal" font-weight="400" stroke="none" x="225.281" xml:space="preserve" y="12">0.00142</text>
            <text fill="#969696" fill-opacity="1" font-family="&quot;MS Shell Dlg 2&quot;, sans-serif" font-size="11" font-style="normal" font-weight="400" stroke="none" x="404.094" xml:space="preserve" y="12">0.00144</text>
            <text fill="#969696" fill-opacity="1" font-family="&quot;MS Shell Dlg 2&quot;, sans-serif" font-size="11" font-style="normal" font-weight="400" stroke="none" x="135.875" xml:space="preserve" y="12">0.00141</text>
            <text fill="#969696" fill-opacity="1" font-family="&quot;MS Shell Dlg 2&quot;, sans-serif" font-size="11" font-style="normal" font-weight="400" stroke="none" x="314.688" xml:space="preserve" y="12">0.00143</text>
            <text fill="#969696" fill-opacity="1" font-family="&quot;MS Shell Dlg 2&quot;, sans-serif" font-size="11" font-style="normal" font-weight="400" stroke="none" x="493.5" xml:space="preserve" y="12">0.00145</text>
        </g>
    </g>
    <g fill="none" fill-rule="evenodd" id="AxisItem_2" stroke="black" stroke-linecap="square" stroke-linejoin="bevel" stroke-width="1">
        <g fill="none" font-family="MS Shell Dlg 2" font-size="11" font-style="normal" font-weight="400" stroke="#969696" stroke-linecap="square" stroke-linejoin="bevel" stroke-opacity="1" stroke-width="1">
            <polyline fill="none" points="36.0,1.0 36.0,41.0" vector-effect="non-scaling-stroke"/>
        </g>
        <g fill="none" font-family="MS Shell Dlg 2" font-size="11" font-style="normal" font-weight="400" stroke="#969696" stroke-linecap="square" stroke-linejoin="bevel" stroke-opacity="0.498039" stroke-width="1">
            <polyline fill="none" points="36.5,1.0887587 39.8333,1.0887587" vector-effect="non-scaling-stroke"/>
        </g>
        <g fill="none" font-family="MS Shell Dlg 2" font-size="11" font-style="normal" font-weight="400" stroke="#969696" stroke-linecap="square" stroke-linejoin="bevel" stroke-opacity="0.333333" stroke-width="1">
            <polyline fill="none" points="36.5,32.758 39.0,32.758" vector-effect="non-scaling-stroke"/>
            <polyline fill="none" points="36.5,22.2016 39.0,22.2016" vector-effect="non-scaling-stroke"/>
            <polyline fill="none" points="36.5,11.6452 39.0,11.6452" vector-effect="non-scaling-stroke"/>
        </g>
        <g fill="none" font-family="MS Shell Dlg 2" font-size="11" font-style="normal" font-weight="400" stroke="#969696" stroke-linecap="square" stroke-linejoin="bevel" stroke-opacity="1" stroke-width="1" transform="matrix(1,0,0,1,1.5,1)">
            <text fill="#969696" fill-opacity="1" font-family="&quot;MS Shell Dlg 2&quot;, sans-serif" font-size="11" font-style="normal" font-weight="400" stroke="none" x="6" xml:space="preserve" y="4.89062">3000</text>
        </g>
    </g>
    <g fill="none" fill-rule="evenodd" id="ViewBox_1" stroke="black" stroke-linecap="square" stroke-linejoin="bevel" stroke-width="1">
        <g fill="none" font-family="MS Shell Dlg 2" font-size="11" font-style="normal" font-weight="400" stroke="none">
            <path d="M36.0,1.0 L610.0,1.0 L610.0,41.0 L36.0,41.0 L36.0,1.0 " fill-rule="evenodd" vector-effect="non-scaling-stroke"/>
        </g>
        <clipPath id="ViewBox_1_clip">
            <path d="M36.0,1.0 L610.0,1.0 L610.0,41.0 L36.0,41.0 L36.0,1.0 " fill-rule="evenodd" vector-effect="non-scaling-stroke"/>
        </clipPath>
        <g clip-path="url(#ViewBox_1_clip)">
            <g fill="none" fill-rule="evenodd" id="ChildGroup_1" stroke="black" stroke-linecap="square" stroke-linejoin="bevel" stroke-width="1">
                <g id="PlotDataItem_1">
                    <g fill="none" fill-rule="evenodd" id="PlotCurveItem_1" stroke="black" stroke-linecap="square" stroke-linejoin="bevel" stroke-width="1">
                        <g fill="none" font-family="MS Shell Dlg 2" font-size="11" font-style="normal" font-weight="400" stroke="#665efc" stroke-linecap="square" stroke-linejoin="bevel" stroke-opacity="1" stroke-width="1">
                            <path d="M-76.3238,29.85519 L-75.0721314,28.27173 L-73.8204628,31.43865 L-72.5687942,21.14616 L-71.3171256,28.00782 L-70.065457,22.2018 L-68.9031933,25.10481 L-67.6515247,27.74391 L-66.3998561,21.41007 L-65.1481875,26.42436 L-63.8965189,29.59128 L-62.6448503,17.97924 L-61.3931817,30.91083 L-60.1415131,20.35443 L-58.8898445,25.63263 L-57.6381759,21.14616 L-56.3865073,14.54841 L-55.1348387,14.54841 L-53.972575,17.97924 L-52.7209064,33.28602 L-51.4692378,21.93789 L-50.2175692,41.99505 L-48.9659006,14.81232 L-47.714232,28.00782 L-46.4625634,19.82661 L-45.2108948,26.68827 L-43.9592262,16.65969 L-42.7075576,26.42436 L-41.455889,31.96647 L-40.2936253,26.16045 L-39.0419567,32.23038 L-37.7902881,25.89654 L-36.5386195,31.17474 L-35.2869509,22.2018 L-34.0352823,22.2018 L-32.7836137,29.06346 L-31.5319451,28.27173 L-30.2802765,30.38301 L-29.0286079,26.16045 L-27.7769393,22.2018 L-26.5252707,9.53412 L-25.363007,21.41007 L-24.1113384,25.89654 L-22.8596698,30.91083 L-21.6080012,29.32737 L-20.3563326,24.04917 L-19.104664,36.45294 L-17.8529954,38.82813 L-16.6013268,35.92512 L-15.3496582,22.46571 L-14.0979896,24.8409 L-12.846321,29.32737 L-11.6840573,35.3973 L-10.4323887,28.00782 L-9.1807201,30.91083 L-7.9290515,19.82661 L-6.6773829,20.88225 L-5.4257143,32.7582 L-4.1740457,39.35595 L-2.9223771,23.25744 L-1.6707085,29.32737 L-0.4190399,17.97924 L0.8326287,24.8409 L2.0842973,31.43865 L3.246561,27.74391 L4.4982296,22.2018 L5.7498982,27.48 L7.0015668,20.09052 L8.2532354,26.95218 L9.504904,20.61834 L10.7565726,20.61834 L12.0082412,21.67398 L13.2599098,22.72962 L14.5115784,33.28602 L15.763247,32.49429 L16.9255107,24.8409 L18.1771793,14.81232 L19.4288479,15.86796 L20.6805165,24.57699 L21.9321851,22.2018 L23.1838537,22.72962 L24.4355223,24.31308 L25.6871909,25.10481 L26.9388595,22.72962 L28.1905281,22.99353 L29.4421967,30.91083 L30.6938653,17.45142 L31.856129,18.50706 L33.1077976,25.36872 L34.3594662,34.07775 L35.6111348,30.1191 L36.8628034,34.86948 L38.114472,29.85519 L39.3661406,23.25744 L40.6178092,9.27021 L41.8694778,23.25744 L43.1211464,27.74391 L44.372815,31.43865 L45.5350787,33.02211 L46.7867473,30.1191 L48.0384159,32.23038 L49.2900845,15.60405 L50.5417531,20.09052 L51.7934217,24.04917 L53.0450903,21.41007 L54.2967589,25.10481 L55.5484275,26.68827 L56.8000961,26.16045 L58.0517647,33.28602 L59.3034333,21.67398 L60.465697,30.64692 L61.7173656,28.79955 L62.9690342,30.38301 L64.2207028,21.67398 L65.4723714,38.56422 L66.72404,26.42436 L67.9757086,38.0364 L69.2273772,37.77249 L70.4790458,24.04917 L71.7307144,25.63263 L72.982383,27.74391 L74.1446467,22.2018 L75.3963153,21.67398 L76.6479839,18.77097 L77.8996525,28.53564 L79.1513211,25.10481 L80.4029897,17.18751 L81.6546583,17.45142 L82.9063269,26.16045 L84.1579955,26.42436 L85.4096641,25.63263 L86.6613327,16.65969 L87.9130013,28.79955 L89.075265,18.24315 L90.3269336,33.28602 L91.5786022,7.68675 L92.8302708,24.04917 L94.0819394,28.00782 L95.333608,22.46571 L96.5852766,28.27173 L97.8369452,27.74391 L99.0886138,9.79803 L100.3402824,31.70256 L101.591951,19.29879 L102.7542147,21.14616 L104.0058833,34.34166 L105.2575519,15.07623 L106.5092205,34.07775 L107.7608891,31.70256 L109.0125577,23.78526 L110.2642263,26.42436 L111.5158949,30.91083 L112.7675635,30.64692 L114.0192321,19.82661 L115.2709007,27.74391 L116.5225693,26.68827 L117.684833,21.93789 L118.9365016,21.41007 L120.1881702,24.57699 L121.4398388,27.48 L122.6915074,22.72962 L123.943176,28.53564 L125.1948446,20.88225 L126.4465132,15.07623 L127.6981818,17.71533 L128.9498504,27.74391 L130.201519,28.00782 L131.3637827,21.41007 L132.6154513,30.91083 L133.8671199,29.06346 L135.1187885,24.04917 L136.3704571,27.48 L137.6221257,13.49277 L138.8737943,20.09052 L140.1254629,24.8409 L141.3771315,12.70104 L142.6288001,24.57699 L143.8804687,28.79955 L145.1321373,19.82661 L146.294401,16.65969 L147.5460696,33.54993 L148.7977382,25.10481 L150.0494068,29.85519 L151.3010754,20.09052 L152.552744,24.57699 L153.8044126,27.21609 L155.0560812,23.52135 L156.3077498,22.99353 L157.5594184,29.85519 L158.811087,28.79955 L159.9733507,29.59128 L161.2250193,20.88225 L162.4766879,21.14616 L163.7283565,25.36872 L164.9800251,20.61834 L166.2316937,30.91083 L167.4833623,21.93789 L168.7350309,32.23038 L169.9866995,20.88225 L171.2383681,14.02059 L172.4900367,29.32737 L173.7417053,19.82661 L174.903969,11.38149 L176.1556376,25.36872 L177.4073062,19.03488 L178.6589748,19.03488 L179.9106434,24.8409 L181.162312,26.95218 L182.4139806,28.27173 L183.6656492,29.32737 L184.9173178,32.23038 L186.1689864,21.67398 L187.420655,22.2018 L188.5829187,18.50706 L189.8345873,18.50706 L191.0862559,27.74391 L192.3379245,17.71533 L193.5895931,25.63263 L194.8412617,21.67398 L196.0929303,19.29879 L197.3445989,16.9236 L198.5962675,29.59128 L199.8479361,24.8409 L201.0996047,28.79955 L202.3512733,19.82661 L203.513537,18.77097 L204.7652056,17.45142 L206.0168742,27.48 L207.2685428,13.49277 L208.5202114,24.31308 L209.77188,30.91083 L211.0235486,20.88225 L212.2752172,27.48 L213.5268858,20.09052 L214.7785544,28.79955 L216.030223,36.45294 L217.1924867,33.28602 L218.4441553,35.3973 L219.6958239,24.8409 L220.9474925,28.53564 L222.1991611,19.03488 L223.4508297,20.88225 L224.7024983,25.89654 L225.9541669,28.00782 L227.2058355,21.14616 L228.4575041,18.77097 L229.7091727,18.50706 L230.9608413,27.74391 L232.123105,22.2018 L233.3747736,24.57699 L234.6264422,19.5627 L235.8781108,30.38301 L237.1297794,24.31308 L238.381448,13.75668 L239.6331166,4.51983 L240.8847852,29.85519 L242.1364538,25.89654 L243.3881224,23.25744 L244.639791,19.29879 L245.8020547,19.03488 L247.0537233,18.77097 L248.3053919,20.88225 L249.5570605,14.54841 L250.8087291,20.35443 L252.0603977,35.92512 L253.3120663,22.46571 L254.5637349,33.02211 L255.8154035,15.07623 L257.0670721,36.98076 L258.3187407,26.95218 L259.5704093,14.81232 L260.732673,29.85519 L261.9843416,26.95218 L263.2360102,20.88225 L264.4876788,24.31308 L265.7393474,18.77097 L266.991016,43.84242 L268.2426846,9.53412 L269.4943532,23.52135 L270.7460218,21.41007 L271.9976904,29.32737 L273.249359,25.89654 L274.4116227,21.93789 L275.6632913,21.14616 L276.9149599,16.13187 L278.1666285,21.41007 L279.4182971,22.99353 L280.6699657,27.48 L281.9216343,21.67398 L283.1733029,32.23038 L284.4249715,24.8409 L285.6766401,26.95218 L286.9283087,22.99353 L288.1799773,31.70256 L289.342241,32.7582 L290.5939096,17.97924 L291.8455782,17.97924 L293.0972468,16.9236 L294.3489154,31.17474 L295.600584,26.16045 L296.8522526,23.78526 L298.1039212,25.10481 L299.3555898,21.93789 L300.6072584,14.54841 L301.858927,24.8409 L303.0211907,21.14616 L304.2728593,36.98076 L305.5245279,24.04917 L306.7761965,27.21609 L308.0278651,28.27173 L309.2795337,20.61834 L310.5312023,26.68827 L311.7828709,26.95218 L313.0345395,31.43865 L314.2862081,22.46571 L315.5378767,28.27173 L316.7895453,11.90931 L317.951809,15.86796 L319.2034776,14.54841 L320.4551462,26.16045 L321.7068148,19.29879 L322.9584834,29.06346 L324.210152,14.02059 L325.4618206,23.52135 L326.7134892,31.43865 L327.9651578,24.57699 L329.2168264,11.11758 L330.468495,17.71533 L331.6307587,22.72962 L332.8824273,25.63263 L334.1340959,25.36872 L335.3857645,27.21609 L336.6374331,21.41007 L337.8891017,28.00782 L339.1407703,22.99353 L340.3924389,32.7582 L341.6441075,26.42436 L342.8957761,11.6454 L344.1474447,30.38301 L345.3991133,19.5627 L346.561377,16.65969 L347.8130456,22.46571 L349.0647142,17.45142 L350.3163828,20.35443 L351.5680514,24.31308 L352.81972,21.93789 L354.0713886,21.67398 L355.3230572,37.77249 L356.5747258,18.24315 L357.8263944,25.36872 L359.078063,33.81384 L360.2403267,28.00782 L361.4919953,23.25744 L362.7436639,26.42436 L363.9953325,20.88225 L365.2470011,16.39578 L366.4986697,29.85519 L367.7503383,23.25744 L369.0020069,27.48 L370.2536755,21.93789 L371.5053441,17.45142 L372.7570127,12.17322 L374.0086813,20.88225 L375.170945,26.42436 L376.4226136,21.93789 L377.6742822,30.38301 L378.9259508,20.88225 L380.1776194,29.32737 L381.429288,36.98076 L382.6809566,20.35443 L383.9326252,19.5627 L385.1842938,21.41007 L386.4359624,14.54841 L387.687631,25.89654 L388.8498947,23.52135 L390.1015633,24.04917 L391.3532319,16.9236 L392.6049005,32.23038 L393.8565691,25.36872 L395.1082377,26.42436 L396.3599063,22.99353 L397.6115749,17.45142 L398.8632435,13.75668 L400.1149121,28.79955 L401.3665807,17.18751 L402.6182493,17.18751 L403.780513,26.16045 L405.0321816,24.31308 L406.2838502,25.10481 L407.5355188,34.07775 L408.7871874,31.17474 L410.038856,17.45142 L411.2905246,29.85519 L412.5421932,19.03488 L413.7938618,24.04917 L415.0455304,40.6755 L416.297199,33.54993 L417.4594627,23.25744 L418.7111313,21.67398 L419.9627999,15.60405 L421.2144685,27.74391 L422.4661371,31.43865 L423.7178057,24.31308 L424.9694743,27.21609 L426.2211429,29.06346 L427.4728115,31.70256 L428.7244801,27.21609 L429.9761487,29.59128 L431.2278173,19.03488 L432.390081,33.28602 L433.6417496,29.32737 L434.8934182,17.71533 L436.1450868,25.36872 L437.3967554,29.06346 L438.648424,29.32737 L439.9000926,10.85367 L441.1517612,28.00782 L442.4034298,28.53564 L443.6550984,24.04917 L444.906767,32.49429 L446.0690307,21.67398 L447.3206993,13.75668 L448.5723679,28.00782 L449.8240365,12.70104 L451.0757051,13.75668 L452.3273737,12.43713 L453.5790423,31.43865 L454.8307109,26.68827 L456.0823795,20.09052 L457.3340481,12.96495 L458.5857167,19.5627 L459.8373853,16.39578 L460.999649,25.63263 L462.2513176,29.06346 L463.5029862,26.95218 L464.7546548,20.09052 L466.0063234,26.68827 L467.257992,24.04917 L468.5096606,9.79803 L469.7613292,20.88225 L471.0129978,31.96647 L472.2646664,22.2018 L473.516335,25.63263 L474.6785987,18.77097 L475.9302673,30.64692 L477.1819359,27.48 L478.4336045,15.60405 L479.6852731,20.88225 L480.9369417,21.41007 L482.1886103,19.29879 L483.4402789,28.53564 L484.6919475,40.6755 L485.9436161,9.0063 L487.1952847,26.42436 L488.4469533,7.42284 L489.609217,26.95218 L490.8608856,9.79803 L492.1125542,24.31308 L493.3642228,16.13187 L494.6158914,21.41007 L495.86756,25.63263 L497.1192286,28.79955 L498.3708972,19.82661 L499.6225658,21.41007 L500.8742344,24.04917 L502.125903,35.13339 L503.2881667,32.23038 L504.5398353,25.10481 L505.7915039,32.49429 L507.0431725,10.06194 L508.2948411,11.38149 L509.5465097,31.70256 L510.7981783,12.17322 L512.0498469,12.70104 L513.3015155,39.09204 L514.5531841,17.97924 L515.8048527,24.04917 L517.0565213,12.17322 L518.218785,22.2018 L519.4704536,20.61834 L520.7221222,26.68827 L521.9737908,25.63263 L523.2254594,16.65969 L524.477128,18.24315 L525.7287966,11.90931 L526.9804652,41.99505 L528.2321338,19.5627 L529.4838024,32.23038 L530.735471,22.72962 L531.8977347,23.25744 L533.1494033,20.09052 L534.4010719,26.95218 L535.6527405,15.60405 L536.9044091,15.60405 L538.1560777,34.60557 L539.4077463,19.82661 L540.6594149,23.25744 L541.9110835,25.63263 L543.1627521,21.93789 L544.4144207,25.36872 L545.6660893,16.39578 L546.828353,28.27173 L548.0800216,33.02211 L549.3316902,26.16045 L550.5833588,36.98076 L551.8350274,34.60557 L553.086696,27.48 L554.3383646,24.31308 L555.5900332,29.59128 L556.8417018,20.09052 L558.0933704,24.57699 L559.345039,18.24315 L560.5073027,30.91083 L561.7589713,16.65969 L563.0106399,36.71685 L564.2623085,25.89654 L565.5139771,33.54993 L566.7656457,26.68827 L568.0173143,16.65969 L569.2689829,15.86796 L570.5206515,23.52135 L571.7723201,19.5627 L573.0239887,25.36872 L574.2756573,12.43713 L575.437921,36.98076 L576.6895896,30.1191 L577.9412582,31.17474 L579.1929268,14.02059 L580.4445954,16.9236 L581.696264,23.52135 L582.9479326,25.89654 L584.1996012,24.31308 L585.4512698,14.54841 L586.7029384,15.86796 L587.954607,20.09052 L589.1168707,17.97924 L590.3685393,23.25744 L591.6202079,31.17474 L592.8718765,22.99353 L594.1235451,21.14616 L595.3752137,21.41007 L596.6268823,17.18751 L597.8785509,24.57699 L599.1302195,20.35443 L600.3818881,41.46723 L601.6335567,35.92512 L602.8852253,30.64692 L604.047489,15.86796 L605.2991576,30.91083 L606.5508262,15.34014 L607.8024948,28.53564 L609.0541634,23.78526 L610.305832,24.31308 L611.5575006,25.63263 L612.8091692,16.39578 L614.0608378,27.74391 L615.3125064,30.38301 L616.564175,26.68827 L617.7264387,28.79955 L618.9781073,18.77097 L620.2297759,29.06346 L621.4814445,29.85519 L622.7331131,25.36872 L623.9847817,18.77097 L625.2364503,11.90931 L626.4881189,32.23038 L627.7397875,27.21609 L628.9914561,19.29879 L630.2431247,29.59128 L631.4947933,21.41007 L632.657057,26.95218 L633.9087256,11.11758 L635.1603942,21.67398 L636.4120628,16.13187 L637.6637314,26.42436 L638.9154,20.09052 " fill-rule="evenodd" vector-effect="non-scaling-stroke"/>
                        </g>
                    </g>
                </g>
            </g>
        </g>
    </g>
</g>

</svg>
