<?xml version="1.0" encoding="UTF-8" standalone="no"?>
<!-- Created with Inkscape (http://www.inkscape.org/) -->
<svg height="128" width="128" xmlns="http://www.w3.org/2000/svg" xmlns:xlink="http://www.w3.org/1999/xlink">
  <defs>
    <filter id="a">
      <feGaussianBlur stdDeviation="1.4771469"/>
    </filter>
    <filter id="b">
      <feGaussianBlur stdDeviation="1.474452"/>
    </filter>
    <linearGradient id="c">
      <stop offset="0"/>
      <stop offset="1" stop-opacity="0"/>
    </linearGradient>
    <filter id="d">
      <feGaussianBlur stdDeviation="21.031171"/>
    </filter>
    <filter id="e">
      <feGaussianBlur stdDeviation="1.4823768"/>
    </filter>
    <filter id="f">
      <feGaussianBlur stdDeviation="1.4839468"/>
    </filter>
    <filter id="g">
      <feGaussianBlur stdDeviation="10.554463"/>
    </filter>
    <radialGradient id="h" cx="442.44681" cy="490.71738" gradientTransform="matrix(.4081281 1.2032645 -.9470078 .3212102 726.58504 -199.28658)" gradientUnits="userSpaceOnUse" r="146.97212">
      <stop offset="0"/>
      <stop offset=".5" stop-color="#666"/>
      <stop offset="1" stop-color="#7f7f7f" stop-opacity="0"/>
    </radialGradient>
    <linearGradient id="i" gradientUnits="userSpaceOnUse" x1="447.42792" x2="450.98187" xlink:href="#c" y1="619.26385" y2="328.42789"/>
    <radialGradient id="j" cx="441.43668" cy="485.6666" gradientTransform="matrix(.4293318 -2.2873523 1.1399055 .213958 -301.70012 1391.4755)" gradientUnits="userSpaceOnUse" r="152.63437">
      <stop offset="0" stop-color="#afb5ba" stop-opacity=".960784"/>
      <stop offset="1" stop-opacity=".960784"/>
    </radialGradient>
    <linearGradient id="k" gradientUnits="userSpaceOnUse" x1="-385.33765" x2="-385.33765" y1="374.22821" y2="469.18298">
      <stop offset="0" stop-color="#fff" stop-opacity="0"/>
      <stop offset="1" stop-color="#c8c8c8"/>
    </linearGradient>
    <linearGradient id="l" gradientUnits="userSpaceOnUse" x1="-463.62922929894" x2="-463.22751830196" y1="707.23470550751" y2="636.1315084016">
      <stop offset="0" stop-color="#1a1a1a"/>
      <stop offset="1" stop-color="#5c5c5c"/>
    </linearGradient>
    <linearGradient id="m" gradientUnits="userSpaceOnUse" x1="-458.30343839782" x2="-455.25985227043" y1="707.30808431942" y2="631.75103622846">
      <stop offset="0" stop-color="#1a1a1a"/>
      <stop offset="1" stop-color="#ccc" stop-opacity="0"/>
    </linearGradient>
    <radialGradient id="n" cx="-462.15759" cy="669.52954" gradientUnits="userSpaceOnUse" r="37.778519">
      <stop offset="0" stop-color="#fff"/>
      <stop offset="1" stop-opacity="0"/>
    </radialGradient>
    <radialGradient id="o" cx="521.16754" cy="545.92981" gradientTransform="matrix(.6368706 -.7709707 1.7406734 1.4379065 -761.03424 162.7387)" gradientUnits="userSpaceOnUse" r="146.47212">
      <stop offset="0" stop-color="#fff"/>
      <stop offset=".5" stop-color="#7fccff" stop-opacity=".415254"/>
      <stop offset="1" stop-color="#009aff" stop-opacity="0"/>
    </radialGradient>
  </defs>
  <g transform="translate(1871.0903 656.4282)"/>
  <g transform="translate(2184.0263 77.704638)">
    <g>
      <path d="m4056.7725 1480.6669c0 579.9083-470.6503 1050.5586-1050.5586 1050.5586-579.9084 0-1050.5586-470.6503-1050.5586-1050.5586 0-579.90837 470.6502-1050.55862 1050.5586-1050.55862 579.9083 0 1050.5586 470.65025 1050.5586 1050.55862z" filter="url(#d)" stroke="#000" stroke-linecap="round" stroke-linejoin="round" stroke-width="2" transform="matrix(.05729662 0 0 .05729662 -2292.6127 -98.308685)"/>
      <path d="m-2184.0261-77.704659h128v127.999993h-128z" fill="#333" opacity="0"/>
      <path d="m587.9088 485.6666c0 80.85261-65.61951 146.47212-146.47212 146.47212-80.85262 0-146.47213-65.61951-146.47213-146.47212 0-80.85262 65.61951-146.47213 146.47213-146.47213 80.85261 0 146.47212 65.61951 146.47212 146.47213z" fill-rule="evenodd" stroke="#000" transform="matrix(.3699421 0 0 .3699421 -2283.5172 -193.18822)"/>
      <path d="m587.9088 485.6666c0 80.85261-65.61951 146.47212-146.47212 146.47212-80.85262 0-146.47213-65.61951-146.47213-146.47212 0-80.85262 65.61951-146.47213 146.47213-146.47213 80.85261 0 146.47212 65.61951 146.47212 146.47213z" fill="url(#h)" fill-rule="evenodd" stroke="#000" transform="matrix(.3699421 0 0 .3699421 -2283.5172 -193.18822)"/>
      <path d="m587.9088 485.6666c0 80.85261-65.61951 146.47212-146.47212 146.47212-80.85262 0-146.47213-65.61951-146.47213-146.47212 0-80.85262 65.61951-146.47213 146.47213-146.47213 80.85261 0 146.47212 65.61951 146.47212 146.47213z" fill="none" stroke="#1a1a1a" stroke-width="4.801973" transform="matrix(.3701369 0 0 .3701369 -2283.6032 -193.28284)"/>
      <path d="m587.9088 485.6666c0 80.85261-65.61951 146.47212-146.47212 146.47212-80.85262 0-146.47213-65.61951-146.47213-146.47212 0-80.85262 65.61951-146.47213 146.47213-146.47213 80.85261 0 146.47212 65.61951 146.47212 146.47213z" fill="none" stroke="#404040" stroke-width="12.324504" transform="matrix(.3902185 0 0 .3902185 -2292.4679 -203.03571)"/>
      <path d="m587.9088 485.6666c0 80.85261-65.61951 146.47212-146.47212 146.47212-80.85262 0-146.47213-65.61951-146.47213-146.47212 0-80.85262 65.61951-146.47213 146.47213-146.47213 80.85261 0 146.47212 65.61951 146.47212 146.47213z" fill="none" filter="url(#b)" stroke="#000" stroke-width="1.946154" transform="matrix(.3751596 0 0 .3751596 -2285.8204 -195.7222)"/>
      <path d="m587.9088 485.6666c0 80.85261-65.61951 146.47212-146.47212 146.47212-80.85262 0-146.47213-65.61951-146.47213-146.47212 0-80.85262 65.61951-146.47213 146.47213-146.47213 80.85261 0 146.47212 65.61951 146.47212 146.47213z" fill="url(#i)" fill-rule="evenodd" transform="matrix(.3012907 0 0 .3012907 -2253.2119 -159.84652)"/>
      <g fill="none">
        <path d="m587.9088 485.6666c0 80.85261-65.61951 146.47212-146.47212 146.47212-80.85262 0-146.47213-65.61951-146.47213-146.47212 0-80.85262 65.61951-146.47213 146.47213-146.47213 80.85261 0 146.47212 65.61951 146.47212 146.47213z" opacity=".523207" stroke="#000" stroke-width="2.455716" transform="matrix(.03921839 -.2987273 .2987273 .03921839 -2282.6055 99.302466)"/>
        <path d="m587.9088 485.6666c0 80.85261-65.61951 146.47212-146.47212 146.47212-80.85262 0-146.47213-65.61951-146.47213-146.47212 0-80.85262 65.61951-146.47213 146.47213-146.47213 80.85261 0 146.47212 65.61951 146.47212 146.47213z" stroke="#000" stroke-width="3.931944" transform="matrix(.3688687 0 0 .3688687 -2283.0433 -192.66687)"/>
        <path d="m587.9088 485.6666c0 80.85261-65.61951 146.47212-146.47212 146.47212-80.85262 0-146.47213-65.61951-146.47213-146.47212 0-80.85262 65.61951-146.47213 146.47213-146.47213 80.85261 0 146.47212 65.61951 146.47212 146.47213z" opacity=".523207" stroke="#000" stroke-width="2.455716" transform="matrix(.04713063 -.3589952 .3589952 .04713063 -2315.3683 122.06417)"/>
        <path d="m587.9088 485.6666c0 80.85261-65.61951 146.47212-146.47212 146.47212-80.85262 0-146.47213-65.61951-146.47213-146.47212 0-80.85262 65.61951-146.47213 146.47213-146.47213 80.85261 0 146.47212 65.61951 146.47212 146.47213z" stroke="url(#j)" stroke-width="12.324504" transform="matrix(.3902185 0 0 .3902185 -2292.4679 -203.03571)"/>
        <path d="m587.9088 485.6666c0 80.85261-65.61951 146.47212-146.47212 146.47212-80.85262 0-146.47213-65.61951-146.47213-146.47212 0-80.85262 65.61951-146.47213 146.47213-146.47213 80.85261 0 146.47212 65.61951 146.47212 146.47213z" filter="url(#a)" opacity=".523207" stroke="#000" stroke-width="2.455716" transform="matrix(.03963983 -.3019377 .3019377 .03963983 -2284.3507 100.5149)"/>
        <path d="m4056.7725 1480.6669c0 579.9083-470.6503 1050.5586-1050.5586 1050.5586-579.9084 0-1050.5586-470.6503-1050.5586-1050.5586 0-579.90837 470.6502-1050.55862 1050.5586-1050.55862 579.9083 0 1050.5586 470.65025 1050.5586 1050.55862z" opacity=".592357" stroke="#000" stroke-linecap="round" stroke-linejoin="round" stroke-width="9.774646" transform="matrix(.05708222 0 0 .05708222 -2291.9682 -97.991218)"/>
        <path d="m587.9088 485.6666c0 80.85261-65.61951 146.47212-146.47212 146.47212-80.85262 0-146.47213-65.61951-146.47213-146.47212 0-80.85262 65.61951-146.47213 146.47213-146.47213 80.85261 0 146.47212 65.61951 146.47212 146.47213z" filter="url(#f)" stroke="#000" stroke-linecap="round" stroke-linejoin="round" stroke-width="3.815697" transform="matrix(.02978209 -.2268508 .2268508 .02978209 -2243.2615 71.807214)"/>
        <path d="m587.9088 485.6666c0 80.85261-65.61951 146.47212-146.47212 146.47212-80.85262 0-146.47213-65.61951-146.47213-146.47212 0-80.85262 65.61951-146.47213 146.47213-146.47213 80.85261 0 146.47212 65.61951 146.47212 146.47213z" stroke="#4d4d4d" stroke-linecap="round" stroke-linejoin="round" stroke-width="5.892814" transform="matrix(.03856882 -.2937795 .2937795 .03856882 -2279.6453 97.084569)"/>
        <path d="m587.9088 485.6666c0 80.85261-65.61951 146.47212-146.47212 146.47212-80.85262 0-146.47213-65.61951-146.47213-146.47212 0-80.85262 65.61951-146.47213 146.47213-146.47213 80.85261 0 146.47212 65.61951 146.47212 146.47213z" stroke="#1a1a1a" stroke-linecap="round" stroke-linejoin="round" stroke-width="3.563545" transform="matrix(.03188944 -.2429025 .2429025 .03188944 -2251.9875 77.869536)"/>
        <path d="m587.9088 485.6666c0 80.85261-65.61951 146.47212-146.47212 146.47212-80.85262 0-146.47213-65.61951-146.47213-146.47212 0-80.85262 65.61951-146.47213 146.47213-146.47213 80.85261 0 146.47212 65.61951 146.47212 146.47213z" stroke="#1a1a1a" stroke-linecap="round" stroke-linejoin="round" stroke-width="3.021582" transform="matrix(.03760925 -.2864704 .2864704 .03760925 -2275.672 94.324128)"/>
        <path d="m587.9088 485.6666c0 80.85261-65.61951 146.47212-146.47212 146.47212-80.85262 0-146.47213-65.61951-146.47213-146.47212 0-80.85262 65.61951-146.47213 146.47213-146.47213 80.85261 0 146.47212 65.61951 146.47212 146.47213z" stroke="#1a1a1a" stroke-linecap="round" stroke-linejoin="round" stroke-width="3.142297" transform="matrix(.03616445 -.2754653 .2754653 .03616445 -2269.6894 90.167755)"/>
        <path d="m587.9088 485.6666c0 80.85261-65.61951 146.47212-146.47212 146.47212-80.85262 0-146.47213-65.61951-146.47213-146.47212 0-80.85262 65.61951-146.47213 146.47213-146.47213 80.85261 0 146.47212 65.61951 146.47212 146.47213z" stroke="#1a1a1a" stroke-linecap="round" stroke-linejoin="round" stroke-width="3.273058" transform="matrix(.03471965 -.2644603 .2644603 .03471965 -2263.7068 86.011411)"/>
      </g>
      <path d="m-328.63631 403.09064c0 30.02162-25.4022 54.38699-56.70134 54.38699-31.29913 0-56.70133-24.36537-56.70133-54.38699 0-30.02163 25.4022-54.387 56.70133-54.387 31.29914 0 56.70134 24.36537 56.70134 54.387z" fill="url(#k)" transform="matrix(.1746043 0 0 .1746043 -2053.2321 -83.546326)"/>
      <g transform="matrix(.7029675 0 0 .7029675 -1795.3302 -484.52852)">
        <path d="m-461.88422 631.48481c-21.27485 0-38.54514 17.27028-38.54512 38.54514 0 21.27487 17.27027 38.53788 38.54512 38.53789 21.27487 0 38.53789-17.26302 38.53789-38.53789 0-21.27486-17.26302-38.54514-38.53789-38.54514zm.66783 27.29374 8.27522 4.26827 2.77295 8.8995-4.27554 8.28249-8.89226 2.76567-8.28247-4.26828-2.76566-8.8995 4.26828-8.28248z" fill-rule="evenodd" stroke="#000" stroke-width="1.250106"/>
        <path d="m-462.15405 632.2478c-20.85368 0-37.7821 16.92838-37.78206 37.78208 0 12.50466 6.09133 23.59137 15.46147 30.46758l20.18601-17.97317-7.00853-3.41533-27.93455-2.34092-.23481-1.13133 27.54322 2.29112-2.5544-7.42123-18.60641-21.93637.56922-.87518 18.44278 21.52369 3.40109-7.037 2.21997-29.34337 1.05306-.09961-2.09189 28.78837 7.99043-2.75361.07118.03558 21.21539-19.99223c-6.29336-4.56927-13.43001-6.56907-21.94117-6.56907zm22.95472 7.35091-20.98307 19.68 6.43065 3.49235 28.86024.99627c-1.52344-9.53386-7.08817-18.64305-14.30782-24.16862zm-13.9112 24.39031 2.26978 7.85526 19.29661 20.24294c4.72534-6.30708 7.16507-13.57478 7.16507-22.05734 0-1.66863-.11014-3.31206-.3202-4.92376zm1.76486 9.02872-3.05271 6.83121-2.02074 27.52186c9.84218-1.5018 18.29613-6.4516 24.09968-14.01066zm-4.22674 7.20121-7.39276 2.68957-20.59161 18.27201c6.23425 4.53649 13.10842 6.62431 21.40273 6.62432 1.56816 0 3.11401-.0987 4.63205-.28461z" fill="url(#l)" fill-rule="evenodd"/>
        <path d="m587.9088 485.6666a146.47212 146.47212 0 1 1 -292.94425 0 146.47212 146.47212 0 1 1 292.94425 0z" fill="none" filter="url(#e)" opacity=".821656" stroke="#000" stroke-width="9.675173" transform="matrix(.2567208 0 0 .2567208 -575.48237 545.34865)"/>
        <g fill-rule="evenodd">
          <path d="m-462.15405 631.75104c-20.85368 0-37.7821 16.92838-37.78206 37.78208 0 12.50466 6.09133 23.59136 15.46147 30.46758l20.18601-17.97317-7.00853-3.41533-27.93455-2.34092-.23481-1.13133 27.54322 2.29112-2.5544-7.42123-18.60641-21.93638.56922-.87517 18.44278 21.52369 3.40109-7.037 2.21997-29.34337 1.05306-.09962-2.09189 28.78838 7.99043-2.75361.07118.03558 21.21539-19.99224c-6.29336-4.56926-13.43001-6.56906-21.94117-6.56906zm22.95472 7.35091-20.98307 19.68 6.43065 3.49234 28.86024.99628c-1.52344-9.53386-7.08817-18.64306-14.30782-24.16862zm-13.9112 24.3903 2.26978 7.85526 19.29661 20.24294c4.72534-6.30707 7.16507-13.57478 7.16507-22.05733 0-1.66863-.11014-3.31206-.3202-4.92377zm1.76486 9.02872-3.05271 6.83122-2.02074 27.52186c9.84218-1.5018 18.29613-6.4516 24.09968-14.01066zm-4.22674 7.20121-7.39276 2.68957-20.59161 18.27202c6.23425 4.53649 13.10842 6.62431 21.40273 6.62431 1.56816 0 3.11401-.0987 4.63205-.28461z" fill="url(#m)"/>
          <path d="m-462.15405 631.75104c-20.85368 0-37.7821 16.92838-37.78206 37.78208 0 12.50466 6.09133 23.59136 15.46147 30.46758l20.18601-17.97317-7.00853-3.41533-27.93455-2.34092-.23481-1.13133 27.54322 2.29112-2.5544-7.42123-18.60641-21.93638.56922-.87517 18.44278 21.52369 3.40109-7.037 2.21997-29.34337 1.05306-.09962-2.09189 28.78838 7.99043-2.75361.07118.03558 21.21539-19.99224c-6.29336-4.56926-13.43001-6.56906-21.94117-6.56906zm22.95472 7.35091-20.98307 19.68 6.43065 3.49234 28.86024.99628c-1.52344-9.53386-7.08817-18.64306-14.30782-24.16862zm-13.9112 24.3903 2.26978 7.85526 19.29661 20.24294c4.72534-6.30707 7.16507-13.57478 7.16507-22.05733 0-1.66863-.11014-3.31206-.3202-4.92377zm1.76486 9.02872-3.05271 6.83122-2.02074 27.52186c9.84218-1.5018 18.29613-6.4516 24.09968-14.01066zm-4.22674 7.20121-7.39276 2.68957-20.59161 18.27202c6.23425 4.53649 13.10842 6.62431 21.40273 6.62431 1.56816 0 3.11401-.0987 4.63205-.28461z" fill="url(#n)"/>
        </g>
      </g>
      <path d="m587.9088 485.6666c0 80.85261-65.61951 146.47212-146.47212 146.47212-80.85262 0-146.47213-65.61951-146.47213-146.47212 0-80.85262 65.61951-146.47213 146.47213-146.47213 80.85261 0 146.47212 65.61951 146.47212 146.47213z" fill="none" stroke="#1a1a1a" stroke-linecap="round" stroke-linejoin="round" stroke-width="3.415175" transform="matrix(.03327485 -.2534553 .2534553 .03327485 -2257.7242 81.855066)"/>
      <path d="m587.9088 485.6666c0 80.85261-65.61951 146.47212-146.47212 146.47212-80.85262 0-146.47213-65.61951-146.47213-146.47212 0-80.85262 65.61951-146.47213 146.47213-146.47213 80.85261 0 146.47212 65.61951 146.47212 146.47213z" fill="url(#o)" fill-rule="evenodd" transform="matrix(-.01682102 -.2879784 -.2879784 .01682102 -1972.6538 104.93929)"/>
      <path d="m-2161.4863 9.0770959-.4967.2521772-.5917-1.1654952-3.5192 1.7866389 1.261.6582462-.5519.280193-1.2923-.703647-.2736-.5389156 4.0776-2.0701311-.5653-1.1135424.4967-.2521722zm-4.7885-2.5839957-.693.2961931-.2791-.652851.6931-.2961932zm2.9294-1.2520242-.693.2961932-.279-.652851.693-.2961932zm-.7659-1.7998997-.5257.1844188-.4327-1.2333799-3.7242 1.3066186 1.1632.8189005-.5841.2049104-1.1881-.8680243-.2001-.5703094 4.3151-1.5139368-.4134-1.17841018.5256-.18442254zm-2.2966-4.5296637.5894-.163561c.124-.034401.2379-.0597077.3417-.0759214.1055-.0192047.2048-.0291205.2978-.0297475.0954-.0012755.1865.0049249.2734.0185838.0863.0113291.1733.029995.2612.0560054l.1197.43152091c-.1812-.06305884-.3568-.10123765-.5268-.11453518-.1706-.01563115-.3319-.00235738-.4839.03983373l.0857.30873037-.7683.21321867zm-1.6191-4.3023674c.214-.0442192.4184-.0505298.6133-.018944.192.0297092.3679.1011753.5276.2143896.1593.1108459.2981.2668097.4165.4678867.1184.2010819.208.4489908.269.7437402.0609.2947582.0769.5578988.0479.789443-.0295.2291583-.0937.428321-.1925.5974708-.1018.1672684-.2347.3037976-.3987.4095791-.1669.1039-.3561.1777117-.5677.221444-.183.0378308-.3515.0441497-.5054.0189577-.1544-.0275691-.2923-.0771391-.4137-.1487173-.1242-.0734598-.2295-.1632283-.3159-.2693094-.0892-.1079576-.1578-.2239095-.2058-.3478482l-.0142.0029494c-.0043.1471217-.0317.2841616-.0823.4111135-.0511.1245747-.1199.2354585-.2064.3326503-.0894.0953016-.1928.1761812-.3105.2426338-.1181.0640755-.2473.1106033-.3875.1395908-.1759.0363611-.348.0372321-.5163.0026079-.1711-.0365006-.3287-.1092726-.4727-.2183123-.1463-.1085464-.2732-.2545874-.3805-.4381216-.1097-.1830459-.1914-.4041148-.2449-.6632115-.0565-.2733573-.0709-.5169972-.0433-.7309196.0272-.2162896.0867-.4020892.1785-.5573939.089-.1571848.2053-.2840862.3489-.3806978.1436-.0966067.3034-.1630837.4793-.1994498.1378-.0284956.2739-.0355588.4083-.0211897.1338.0119881.2609.045212.3812.099653.1174.0525658.2245.1270885.3213.2235781.0939.0945995.1701.2114551.2286.3505581l.0143-.0029532c-.0062-.1499069.01-.2932983.0486-.4301743.0363-.1363742.0974-.2605371.1833-.3724877.0835-.1114499.1912-.208066.323-.2898448.1318-.0817688.2881-.141327.4687-.1786709m-2.2039 1.2809195c-.1259.0260443-.2378.0665106-.3355.1214063-.0982.0525235-.1765.1232406-.235.2121613-.0608.0894089-.0992.1977173-.115.3249179-.0182.1276975-.0094.2783066.0265.4518272.0349.1687713.0857.3069668.1526.4146005.0645.1081181.1426.1923527.2344.2526926.0889.0584584.1891.0935179.3006.105177.1114.0116605.2302.0044661.3561-.0215745.0999-.0206324.1994-.0548344.2986-.1026023.0992-.047763.1844-.11496.2557-.2015838.0714-.0866175.1218-.1961905.1514-.3287226.0297-.1325272.0248-.2938743-.0145-.4840365-.0418-.2020456-.1025-.358033-.1822-.467966-.0803-.1123015-.1698-.1916965-.2686-.2381913-.0994-.0488669-.2033-.071999-.3118-.0694013-.109.0002292-.2134.0106581-.3133.0312955m2.2811-.6016338c-.1212.0250566-.2342.0657707-.3391.1221412-.1072.0568624-.1952.1345497-.2641.2330519-.0712.0990041-.1188.2228389-.1426.3715144-.0266.1467952-.0188.3223993.0234.5268233.0388.1877887.0993.3425832.1815.4643996.0793.1199225.1716.2123964.2767.2774116.1047.0626431.2192.100937.3435.1148944.122.0144505.2448.0088984.3684-.0166502.1545-.0319369.292-.080186.4125-.1447535.1181-.0640705.2149-.1472859.2904-.249645.0731-.1018683.1207-.2257032.1426-.3715107.0219-.1458112.0129-.3149797-.0269-.507524-.0403-.1949128-.0991-.3537694-.1765-.4765698-.0775-.1227905-.1697-.2152644-.2767-.2774117-.1095-.0616553-.2318-.0958569-.367-.1026025-.1381-.0086307-.2868.0035113-.4461.036431m-2.2999-15.4131919 3.4342.442083-.0837.650001-3.4341-.442083-.0707.54889-.473-.060895.0706-.54889-.4405-.056715c-.1421-.018284-.2716-.048409-.3885-.090388-.1194-.042288-.2191-.10407-.2992-.185357-.0822-.083994-.1407-.190637-.1754-.319921-.0372-.129598-.0432-.291894-.0181-.486897.0099-.077032.0238-.156014.0415-.236936.0181-.083327.0384-.155359.0609-.216096l.4947.063687c-.0125.039998-.0247.087372-.0367.142115-.014.052036-.0238.099725-.0294.143054-.0124.096297-.0094.177447.009.243446.0188.0636.0511.116702.097.15932.0438.039906.1009.071726.1713.095466.0706.021337.1529.038045.2468.050132l.3503.04509.0981-.761947.473.060898zm.5064-1.27745-.5286-.105017.7061-3.553242.5285.105016zm1.8284.363301-.5285-.105016.706-3.553243.5285.105016zm1.4906-7.821265c.2468.072647.4617.176382.6447.311197.183.134824.3274.297519.4332.48807.1036.189874.1639.406245.1809.64911.0178.240542-.0155.504013-.0998.790418-.076.258467-.1728.475426-.2902.650869-.1167.173122-.247.310625-.3909.412507-.1462.101205-.3019.170489-.4673.207847-.1646.035037-.3332.044868-.5058.029494l.1137-.657273c.1007.001803.2021-.007564.3043-.028093.0999-.021211.1964-.061122.2896-.119734.0915-.06162.1753-.144475.2515-.248572.0745-.107096.1365-.244474.1858-.412133.048-.162991.0671-.318048.0572-.465171-.0121-.1478-.0534-.282663-.1238-.404588-.0697-.124247-.168-.232891-.295-.325929-.127-.09303-.2824-.166612-.4664-.22076-.1513-.044541-.2971-.060872-.4372-.048981-.1425.011208-.2725.048854-.39.112932-.1199.063405-.2249.153929-.3152.271573-.0896.115317-.1591.256806-.2085.424456-.0308.104788-.0499.20416-.0573.298125-.0075.09397-.0062.184172.0038.270602.0107.084113.0289.164111.0546.239997.0241.07288.0516.142948.0824.210209l-.181.61473-2.5992-.943377.8235-2.797716.5344.157286-.6549 2.224897 1.5335.553818c-.0532-.137128-.0854-.298424-.0966-.483895-.0136-.186158.0136-.394496.0814-.62502.072-.244495.174-.453572.3061-.627239.1321-.173663.287-.308968.4648-.405921.1755-.09763.3685-.155946.5791-.174952.2105-.018997.4287.004745.6546.071217m.7136-4.361743c.4586.18011.8277.375884 1.1071.587318.2781.208298.4845.426285.6194.653956.1335.224528.2021.454878.2058.691038.0038.236172-.0396.469478-.1301.699927-.0914.232707-.2184.433188-.3809.601438-.1626.16825-.3692.289226-.6197.362923-.2498.071444-.5474.088868-.8929.052282-.3468-.039727-.7507-.150094-1.2116-.331094-.4813-.188977-.8625-.38693-1.1437-.593846-.2826-.210067-.4884-.426479-.6173-.649233-.129-.222757-.1908-.450443-.1855-.683061.003-.233498.0515-.469992.1456-.709483.0896-.228183.2119-.426608.3667-.595266.1536-.171794.3534-.295427.5994-.370908.2461-.075471.5442-.094026.8942-.055674.3478.037475.7622.150701 1.2435.339683m-.2436.620176c-.3795-.149053-.7036-.250226-.9721-.303528-.2708-.054178-.498-.066494-.6818-.036941-.1859.028674-.3347.095419-.4463.20024-.1129.101681-.2013.233856-.2652.396525-.0674.171706-.0953.3355-.0835.491383.0118.155884.0757.308731.1916.458549.1145.146672.2894.292284.5247.436838.233.143674.5382.289591.9155.437757.366.143732.6833.242249.9518.295547.2694.051037.4982.062665.6865.034887.1868-.030929.3394-.097475.4578-.199641.1161-.103048.2065-.237038.2713-.401969.063-.160408.087-.317871.0721-.472384-.0173-.155393-.0842-.306868-.201-.454433-.1182-.150699-.2933-.299018-.5255-.444945-.2312-.148187-.5299-.294149-.8959-.437885m3.9928-2.459593-2.2103-1.163071c-.1697-.089288-.3171-.153152-.4423-.191582-.1251-.038421-.2356-.04994-.3315-.034561-.0969.012107-.1807.051629-.2516.118557-.073.065806-.1406.157779-.2028.275916-.0644.12244-.0979.246061-.1005.370865-.0048.123679.0204.245268.0755.36475.054.116209.1385.229255.2535.339125.114.106598.258.20567.4319.297225l2.0203 1.063041-.3035.576749-2.742-1.442824c-.073-.038424-.1498-.077479-.2304-.117152-.0817-.042947-.1585-.081996-.2305-.117153-.0742-.036284-.1376-.066915-.1903-.091893-.0527-.024979-.0871-.040346-.1032-.046114l.2882-.547753c.0118.00351.042.016618.0904.039335.0484.02272.1043.049396.1677.080022.0624.027358.1264.056912.1919.088669.0635.030636.1167.05725.1596.079859l.0051-.00967c-.0738-.104677-.1357-.208561-.1857-.311661-.05-.103095-.082-.209069-.096-.317942-.0151-.112141-.0105-.227677.0137-.346612.0232-.122203.0709-.252042.1432-.389524.1391-.264206.3013-.444874.4868-.542006.1867-.099265.4107-.118507.6722-.057712l.0051-.00967c-.0738-.104673-.1346-.210703-.1823-.318102-.0477-.107389-.0769-.218738-.0875-.334056-.0128-.116431-.006-.236265.0204-.359494.0243-.124355.0727-.255271.145-.392753.0927-.17613.196-.315135.3099-.41701.1151-.104009.2435-.170834.3853-.200471.1418-.02963.3012-.022516.4784.021321.175.04272.3699.120597.5847.23362l2.3231 1.22241-.3018.573528-2.2103-1.163071c-.1697-.089288-.3172-.153146-.4423-.191577-.1252-.038417-.2357-.04994-.3315-.03456-.0969.012111-.1808.051628-.2517.118551-.073.065806-.1406.15778-.2027.275917-.0645.122444-.0991.245503-.1038.369172-.0069.122551.0161.243001.0691.361356.054.116213.1385.22926.2535.339125.1161.107728.2633.208503.4416.302312l2.0202 1.06304zm3.2164-5.317179-2.0368-1.445578c-.1564-.110984-.294-.193803-.413-.24847-.119-.054658-.227-.080715-.324-.078167-.0977-.000826-.186.027235-.2652.084184-.081.055554-.1602.137765-.2375.246625-.0801.112831-.1297.230926-.1488.354286-.021.121965-.0122.245809.0266.371535.0382.122351.1069.24559.2064.369719.0988.120753.2284.238021.3887.351814l1.8617 1.321247-.3772.531476-2.5268-1.793278c-.0673-.04776-.1382-.096641-.2129-.146645-.0752-.053382-.1462-.10226-.2129-.146649-.0687-.045781-.1275-.084538-.1764-.11628-.0489-.031734-.081-.05153-.0963-.059384l.3583-.504751c.0113.005049.0394.022031.0843.050956.045.028928.0969.062776.1557.101533.0582.035378.1177.073147.1785.113308.0588.038766.108.072196.1476.100291l.0063-.008909c-.0593-.113528-.1069-.2247-.1428-.333511-.0358-.108806-.0535-.218093-.053-.327855-.0001-.11315.0198-.227064.0595-.341744.0391-.11806.1037-.240436.1936-.367122.1728-.243465.3575-.401047.5543-.472756.1981-.073674.4227-.063067.6739.03182l.0063-.008903c-.0593-.113528-.1055-.226679-.1386-.339452-.0331-.112761-.0472-.226993-.0425-.342702.0027-.117104.0254-.23498.0679-.353619.0406-.120038.1058-.243398.1957-.370087.1152-.162309.236-.286403.3624-.372289.1279-.087857.264-.137082.4084-.147681.1445-.010586.3016.017573.4714.084492.1678.065527.3507.168527.5486.309001l2.1407 1.519336-.3751.528501-2.0368-1.445578c-.1563-.110976-.294-.193795-.413-.248466-.1189-.054653-.2269-.08071-.324-.078166-.0976-.000827-.186.027234-.2651.084183-.0811.055554-.1603.137765-.2376.246629-.08.11283-.1306.230222-.1517.352178-.023.120558-.0162.242999.0206.367315.0382.122352.107.245591.2064.369723.1008.122159.2334.24154.3977.358133l1.8616 1.321252zm10.4285-10.725817c-.017-.013454-.0446-.038608-.083-.075471-.0378-.040536-.0807-.085485-.1287-.134845-.0459-.050955-.0926-.102955-.1401-.155997-.0454-.054646-.0849-.103846-.1186-.1476l-.0125.009626c.0664.297375.0448.564568-.0647.801583-.1091.233341-.2907.447873-.5449.643608-.2125.163644-.4306.261882-.6542.294707-.2216.031223-.4435.008017-.666-.069623-.2203-.079241-.4373-.205865-.6509-.379864-.2132-.177685-.4168-.392575-.611-.644667-.1973-.256251-.3536-.510927-.4689-.76402-.1131-.254694-.1759-.500042-.1884-.736037-.0141-.238074.0264-.463434.1215-.676085.0973-.214241.2584-.408004.4834-.581279.1104-.085029.2255-.155391.3452-.211098.1197-.055688.2418-.093274.3662-.112743.1244-.019461.2509-.018971.3795.001478.1286.020458.2588.064562.3906.132302l.0063-.004817c-.0161-.020828-.0404-.050234-.073-.088219-.032-.041662-.0681-.088539-.1082-.140625-.0402-.05208-.0829-.105447-.1283-.160102-.0433-.056244-.085-.110413-.1252-.162502l-.9506-1.234404.8782-.676245 3.0034 3.900088c.1267.164589.243.30906.3487.433412.1041.122281.1855.217227.2442.284855zm-1.357-1.678126c-.1717-.222917-.3345-.391255-.4885-.505004-.1555-.115829-.3006-.189985-.4351-.222463-.1341-.036156-.2577-.037212-.3709-.003166-.1127.030368-.2138.08004-.3034.149027-.1125.08664-.1956.185523-.2494.296657-.0518.109531-.0717.234439-.06.374711.0139.138683.0614.292969.1424.462868.0832.1683.2041.355575.363.561828.5904.766687 1.1158.972745 1.5762.618174.0875-.067383.1606-.153514.2192-.258402.0586-.104884.0878-.22859.0876-.371124-.0002-.14253-.0373-.304835-.1111-.486933-.0734-.185772-.1967-.391167-.37-.616173m.3758-3.785219-.4473-.683032.9272-.607233.4473.683038zm2.7596 4.213691-2.3382-3.570251.9272-.607236 2.3382 3.570255zm4.2633-.599932c-.2464.135939-.4779.230679-.6947.284207-.2131.054558-.4112.073792-.5943.057697-.1795-.015068-.3439-.062528-.4931-.142389-.1456-.07882-.274-.183646-.3852-.314473l.9075-.64947c.1171.130586.2556.207345.4154.230275.1621.021658.3352-.018329.5194-.119971.1151-.063524.211-.137448.2876-.221765.0789-.085592.1301-.185953.1537-.301074.0272-.114088.0242-.244608-.0088-.39156-.0308-.148221-.0976-.315575-.2005-.502055-.0356-.064466-.0718-.130078-.1086-.196845-.0369-.066764-.0694-.128406-.0976-.184937-.0333-.065727-.0664-.128524-.0994-.188389l-.0069.003813c.0205.303995-.0418.566628-.1869.787906-.1429.220012-.3548.407512-.6357.562514-.2371.13086-.4674.197889-.6909.201081-.2225-.000369-.4358-.052315-.6401-.155821-.2056-.105814-.3995-.258587-.5818-.458316-.1813-.20331-.3488-.444248-.5025-.722821-.1588-.28778-.2736-.563814-.3444-.828107-.072-.266591-.0957-.516316-.071-.749179.0269-.234125.1055-.445636.2355-.634522.131-.192457.3209-.357291.5695-.494513.2487-.137206.5001-.206853.7542-.208951.2564-.003351.5053.083045.7467.259185l.0173-.009525c-.0267-.04834-.0561-.104231-.0881-.167668-.0309-.066997-.06-.130549-.0871-.190651-.0285-.062393-.0531-.11789-.0739-.166482-.0185-.049847-.0299-.084104-.0342-.102768l.9186-.506922c.0411.085423.1007.204232.1787.356414.078.152192.1703.324982.277.518365l1.5227 2.75925c.1499.271666.241.52925.2733.77274.0335.245795.0111.477385-.0671.694767-.076.216111-.2061.418536-.3902.607265-.1819.187465-.4133.358693-.6941.513695m-1.0752-3.866696c-.1296-.234825-.2606-.417811-.393-.548963-.1325-.131139-.2616-.223579-.3873-.277316-.1258-.053736-.2478-.073494-.3661-.059275-.116.012959-.2223.046112-.319.099472-.1243.068607-.2215.153765-.2915.255467-.0677.100443-.107.219735-.1179.357874-.0109.138145.0096.295022.0615.47063.0519.175613.1375.371622.2569.588033.2224.4029.4545.67122.6965.804972s.4908.130123.7464-.010909c.0966-.053359.182-.124502.2561-.213429.0751-.092494.1246-.206902.1485-.343223.0226-.138624.0131-.30006-.0285-.484333-.0417-.184261-.1292-.397259-.2626-.639m.9578-3.653556-.3393-.74264 1.0081-.460573.3393.74264zm2.093 4.581421-1.7734-3.88183 1.0081-.460573 1.7735 3.881829zm5.6294-2.242042-2.7366-1.733946-.4704.724535.6805 1.909744-1.096.390588-1.8656-5.235079 1.0961-.390587.846 2.374178 1.5133-3.214934 1.2781-.455465-1.4476 3.011477 3.4952 2.158728zm2.9097-.732064c-.1996.047037-.3851.06237-.5565.046009-.1694-.019521-.3215-.068786-.4563-.147795-.1353-.081566-.2509-.193484-.3465-.335739-.0957-.142255-.167-.313207-.214-.512845-.0579-.24571-.0642-.461699-.019-.647963.0472-.189425.133-.352812.2574-.490174.1237-.139906.2799-.256417.4687-.349526.1882-.095668.3946-.171312.6192-.226941l.8909-.226111-.0497-.211154c-.0356-.151006-.0792-.273102-.1309-.366293-.0497-.096349-.1077-.170481-.1739-.222416-.0663-.051922-.1409-.081633-.2237-.089141-.0808-.010662-.1699-.004542-.2671.018371-.0896.021112-.1681.049063-.2356.083864-.0649.034198-.1175.080365-.1578.138491-.0409.055577-.069.125672-.0842.21029-.0132.081464-.0127.181291.0017.299479l-1.1376.211281c-.0121-.188959.0053-.367312.0523-.535059.0463-.1703.1282-.327365.2456-.471198.1199-.144428.2779-.270798.4739-.379119.198-.111472.439-.200675.7231-.267617.2585-.060903.4964-.083182.7137-.066833.2172.016353.4113.071928.5823.166726.1703.092256.3143.221775.4319.388563.1176.1668.2051.371772.2624.614916l.3564 1.512646c.0229.097267.0472.183384.073.258357.0283.074374.0604.135718.0961.184038.0376.045158.0815.076693.1317.094592.052.014745.1139.013672.1856-.003218.0819-.01929.1594-.045664.2326-.079112l.1375.583559c-.0604.030433-.1147.058077-.1628.082934-.0482.024855-.097.047161-.1464.066893-.0493.019739-.1029.039103-.1605.058094-.0551.018383-.1211.036622-.1978.054714-.2714.063918-.4879.04471-.6498-.057628-.1594-.102938-.2823-.280648-.3688-.533126l-.023.005428c-.0824.292272-.2194.536608-.4108.733008-.189.195795-.4434.331378-.7633.406755m.7841-2.296009-.551.137932c-.114.032258-.2216.068427-.3229.108505-.0994.036918-.1833.087763-.2518.152523-.0665.061603-.1129.140065-.1391.235376-.0261.09532-.022.215921.0123.361811.0465.197083.1259.333696.2384.409851.1145.072994.2472.091697.3982.056121.1382-.032567.2567-.091545.3555-.176949.0987-.085398.1753-.184494.2298-.297287.0564-.11595.0916-.241762.1056-.377428.0139-.135665.0056-.268762-.0252-.399296zm5.1185 1.134267-.2532-2.380777c-.0176-.164731-.0453-.313829-.0833-.447297-.0357-.136358-.0848-.250126-.1474-.341316-.0602-.094075-.1351-.16412-.2246-.210133-.0869-.046291-.1892-.063175-.3069-.050664-.1124.011965-.2112.05288-.2963.12275-.0854.06726-.1563.159418-.2126.276469-.0539.11416-.0912.249017-.1116.404566-.0208.152939-.0216.319618-.0024.500036l.242 2.274877-1.1022.117223-.3504-3.294642c-.0097-.091517-.021-.185508-.0339-.281981-.0103-.096748-.0227-.187983-.0371-.273725-.0121-.088622-.023-.166785-.0329-.234497-.0101-.070317-.0196-.122192-.0284-.155637l1.0511-.111799c.0086.030827.0193.081256.032.151293.0125.067437.0257.14271.0399.225821.0141.083123.0269.16638.0384.24977.0142.083123.0243.153441.0304.210965l.0157-.001667c.1015-.338694.2451-.591967.4309-.75981.1884-.168119.4237-.267197.7061-.297238.3243-.03448.5929.017594.806.156238.2154.135753.3731.350364.4731.643834l.0235-.002507c.0572-.183252.1227-.3383.1965-.465147.0763-.127119.1631-.231541.2602-.313271.0994-.084616.2089-.149143.3284-.193601.1222-.044721.2565-.074867.4029-.090449.2328-.024748.4333-.003766.6017.062935.171.066436.314.167582.429.303437.1175.135586.2091.300378.2747.494367.0682.193725.1145.405636.139.635734l.2866 2.694548-1.0943.116388-.2532-2.380772c-.0176-.164728-.0453-.31383-.0833-.447298-.0357-.136354-.0848-.25013-.1474-.341315-.0602-.094076-.1351-.164121-.2246-.210134-.0869-.046287-.1892-.063176-.3069-.050664-.1098.011684-.2074.051155-.2928.118411-.0831.064372-.153.152466-.2099.264285-.0545.108933-.0924.237252-.1137.384959-.0214.147708-.0253.309434-.0119.485181l.2474 2.325862zm17.1039 1.151157.6346-2.415717c.0487-.185458.0776-.343487.0868-.474082.0093-.130586-.0045-.240842-.0411-.330774-.0336-.09165-.091-.164454-.1722-.218408-.0806-.056299-.1854-.101408-.3146-.135325-.1338-.035151-.2618-.03991-.3839-.014283-.1216.023287-.2344.075222-.3384.155819-.101.07887-.1921.186701-.2732.323502-.0781.135074-.1422.297685-.1921.48784l-.58 2.207954-.6303-.165577.7872-2.996755c.0209-.079817.0416-.163469.0621-.25095.0234-.089208.0442-.172855.0622-.250947.0186-.080435.0341-.149127.0466-.206093.0124-.056952.0196-.09396.0216-.111016l.5987.157253c-.0008.012358-.0068.044668-.018.096928-.0112.052269-.0246.112746-.0401.181442-.0126.066975-.0269.135976-.0431.207021-.0155.068701-.0295.126525-.0418.173474l.0106.002774c.0853-.09553.1725-.179273.2617-.25122.0892-.07194.1852-.127023.2881-.165248.1059-.039947.2194-.06156.3408-.06483.1242-.004996.2615.012242.4118.051703.2887.075852.5013.193189.6378.352.1388.159443.2081.373391.2078.641847l.0106.002778c.0853-.095538.1749-.178664.2688-.249374.0939-.070708.1958-.124249.3057-.160623.1105-.038716.2288-.059096.3548-.061129.1267-.004378.2651.013168.4154.05263.1925.050568.3512.119867.4761.207896.1273.08865.2214.19869.2823.330109.0608.131425.0898.288379.0871.470853-.0022.180131-.0341.387577-.0957.622341l-.667 2.538967-.6268-.164655.6346-2.415714c.0487-.185457.0776-.343486.0868-.474081.0093-.130587-.0044-.240846-.0411-.330774-.0336-.091655-.091-.164459-.1722-.218412-.0806-.056295-.1854-.101408-.3146-.135325-.1338-.035147-.2615-.041084-.383-.017804-.121.020938-.2331.070529-.3365.148781-.101.078865-.1921.186701-.2732.323502-.0787.137419-.1437.303551-.1949.498404l-.58 2.207949zm4.6787 1.53353c-.3693-.141858-.6094-.345908-.7204-.612138-.1109-.266239-.1011-.569288.0294-.909173.0931-.242444.2146-.423308.3644-.542572.153-.120659.3201-.19689.5013-.228689.1835-.030927.3769-.02683.5803.012289.2034.039123.4045.094275.6034.165464l.8311.30364.0771-.200528c.0583-.151814.092-.287063.1012-.405745.0092-.118678-.0065-.223493-.0469-.314441-.0405-.090953-.1049-.170299-.1933-.238054-.0853-.069146-.1947-.129395-.3284-.180748-.1178-.045256-.2278-.077093-.33-.095527-.1012-.020685-.1957-.021867-.2833-.003528-.0868.016071-.1665.054357-.2391.11486-.0718.058239-.1367.142526-.1947.252863l-.6168-.303215c.0784-.136309.1724-.252328.2819-.348053.1105-.097985.2405-.168969.39-.212954.1517-.043111.324-.054946.5167-.035516.1959.018034.4185.07492.6677.170653.4623.177556.7692.417647.9208.720281.1524.300372.1516.651085-.0025 1.052147l-.6083 1.583844c-.0697.181269-.0985.327492-.0866.438672.0128.108906.086.189038.2197.240388.034.013059.0688.023845.1045.032372.0358.008518.0708.015476.1051.020862l-.1462.380669c-.084-.011464-.1662-.027464-.2468-.047987-.0782-.019659-.1604-.046029-.2465-.079099-.1156-.044388-.2096-.097407-.2821-.159064-.0694-.063058-.1184-.135183-.147-.216379-.0278-.083461-.0378-.175733-.0302-.276809.0085-.10335.0328-.217503.073-.342469l-.0204-.007835c-.1109.092584-.2243.17123-.3402.235938-.1136.065572-.2356.112328-.3659.140273-.1295.025671-.268.030963-.4156.015869-.1454-.014228-.3042-.054416-.4764-.120561m.3156-.40531c.1949.074849.3783.105001.5503.090462.1752-.015935.3316-.061142.4694-.135612.1401-.073607.2592-.166981.3573-.280126.098-.113142.1701-.229759.2162-.349851l.1162-.302493-.6748-.243588c-.1504-.055174-.2975-.098678-.4413-.130504-.1406-.033221-.2728-.041094-.3965-.023609-.1237.017481-.2358.065451-.3361.143917-.0981.079334-.1789.201709-.2424.367118-.0766.199397-.0826.37393-.0178.523595.0669.150537.2001.264102.3995.340691m5.1442 2.030252c-.2199.173447-.4444.264976-.6733.274586-.2268.010678-.4732-.049037-.7393-.179135-.447-.218614-.7026-.53009-.767-.934437-.0621-.40328.0561-.910184.3547-1.520716.6036-1.234142 1.3393-1.638999 2.2071-1.214573.2682.131167.4677.289531.5985.475099.1308.185566.1985.411848.203.678857l.0065.003195c.0107-.021801.0261-.056128.0464-.102989.0234-.047969.0463-.097562.0687-.148782.0256-.05233.0496-.101386.072-.147181.0223-.045786.0383-.078495.0479-.09812l.6703-1.370423.5887.287924-2.0171 4.12436c-.0416.085038-.0816.166807-.12.245301-.0362.079564-.0692.152585-.099.219067-.0298.066477-.0554.124241-.0766.173275-.0203.046856-.0341.080629-.0415.101325l-.5625-.275136c.0063-.023939.0168-.056599.0317-.097976.018-.0425.0377-.090979.0589-.145443.0234-.053395.0479-.108973.0735-.166732.0266-.059938.0537-.118258.0815-.174948zm-1.1972-2.077c-.1194.24421-.2065.461002-.2613.650366-.0548.189368-.0761.357276-.064.503716.0133.144265.0594.268152.1385.371672.079.103518.1938.192072.3442.265647.1549.075718.3034.117293.4457.124725.1444.008505.2831-.023655.416-.096466.1361-.073929.2691-.191252.3991-.351966.1299-.160716.2589-.371905.3868-.633562.1227-.25075.2054-.472387.2482-.664906.0439-.194698.0516-.365199.0232-.511501-.0284-.146295-.0903-.271134-.1856-.374511-.0922-.104488-.2145-.194059-.3672-.268707-.1439-.070381-.2804-.10609-.4096-.107131-.1292-.001033-.2559.036988-.38.114064-.1242.07708-.2474.196489-.3698.358225-.1191.160623-.2405.367403-.3642.620335m3.7717 2.109358c-.1067.176607-.1876.350376-.2426.52131-.0517.170103-.0727.331767-.0632.484982.0129.152394.0603.294484.1424.426262.0833.129706.208.24475.3743.345136.2431.146819.4668.21532.6712.205505.2065-.008562.3809-.071957.5232-.190179l.4077.43764c-.0918.072165-.1987.136591-.3208.193265-.1188.055853-.2544.09022-.4068.1031-.1512.010802-.3218-.007177-.5119-.053933-.1868-.047581-.3924-.139134-.6167-.274653-.4987-.301166-.7892-.679359-.8716-1.134586-.0802-.453976.0566-.97392.4104-1.559845.1908-.315819.3915-.558964.6022-.72945.212-.172554.4279-.285986.6479-.340302.2199-.054308.4395-.056375.6587-.006209.2205.048095.4347.134887.6424.260371.2826.170658.4908.358793.6247.564402.1359.206868.2121.42584.2285.656922.0197.230256-.0124.468897-.0964.715926-.0819.248277-.1994.49916-.3524.752642l-.0452.0748zm2.086.672912c.1835-.374118.2493-.687382.1976-.939798-.0505-.254489-.216-.466433-.4965-.635837-.0935-.056466-.2016-.100489-.3243-.13207-.1193-.032398-.2459-.036511-.3796-.012337s-.2708.084557-.4114.181138c-.1393.094513-.2746.241062-.4059.439661zm2.4889 4.708315c-.3085-.247701-.475-.515243-.4995-.802628-.0245-.287386.0772-.573029.3051-.856936.1627-.202519.3335-.337735.5125-.405655.1825-.068287.3648-.089954.5471-.064993.1842.026483.3672.089352.549.188611s.3565.213103.5242.341528l.699.542551.1345-.167503c.1018-.126809.1752-.24533.2201-.355563.045-.110234.062-.214832.0512-.313784-.0108-.098959-.048-.194178-.1115-.285643-.0601-.091841-.146-.182596-.2577-.272257-.0984-.079015-.1935-.142867-.2851-.191555-.0901-.050576-.1797-.080492-.2688-.089746-.0875-.011149-.1751.001016-.2628.036494-.0861.033589-.1736.094086-.2624.181497l-.495-.476807c.1162-.105932.241-.187781.3746-.245551.135-.059649.2805-.087634.4363-.083952.1576.005209.3253.046445.503.123711.181.076895.3756.198923.5839.366076.3861.310014.6052.632236.6573.966671.0536.332547-.0541.66632-.3231 1.001328l-1.0622 1.323004c-.1216.151415-.1936.281879-.2162.391397-.021.107616.0243.206262.136.29592.0283.022793.0583.043695.0897.062706.0314.019005.0627.036311.0937.051904l-.2553.317978c-.0765-.03653-.15-.076837-.2204-.120937-.0685-.042575-.1388-.09274-.2107-.150482-.0965-.077508-.1699-.15667-.2202-.237502-.0469-.081208-.0715-.164839-.074-.250891-.001-.08795.0175-.178896.0556-.272836.0396-.095837.0976-.19714.174-.303906l-.0171-.013676c-.1339.054353-.2659.094675-.3959.120985-.1282.027826-.2586.035175-.3913.022053-.1311-.015015-.2647-.052211-.4007-.111587-.1341-.057856-.273-.144531-.4169-.260024m.4242-.289811c.1627.130686.3282.215326.4965.253909.1716.038208.3344.042856.4884.013939.1558-.027402.2977-.080027.4256-.157894.1279-.077864.2321-.166954.3126-.267264l.2029-.25268-.5684-.437695c-.1264-.098405-.2533-.18468-.3805-.258823-.1238-.07452-.2473-.122311-.3705-.14338-.1232-.021065-.2445-.009527-.364.034612-.1176.045665-.2318.137576-.3428.275744-.1337.166558-.1926.330977-.1765.493249.0179.163792.1101.312554.2767.446283m4.9337 3.493798c-.1272.133564-.2674.227953-.4206.283168-.1498.055133-.3082.071843-.4752.050142-.1654-.023469-.3386-.084513-.5195-.183138-.1775-.098718-.3585-.23597-.5431-.41177-.1652-.15738-.302-.312878-.4104-.46648-.1084-.150176-.1859-.301099-.2325-.452767-.0466-.151674-.0606-.305848-.0421-.462527.022-.156767.0808-.316998.1764-.480701l.497.317598c-.1053.191402-.129.383402-.0711.576005.0596.190845.2018.393424.4268.607728.1019.097107.2018.178814.2995.245125.0995.067977.1959.114574.2893.139782.0949.02345.1859.022965.2729-.001461.0904-.024507.1758-.07894.2561-.163299.0821-.086109.1288-.175657.1403-.268647.0132-.094746.0013-.194896-.0356-.300447-.0369-.105547-.0946-.220895-.1732-.346041-.0751-.125226-.1583-.26313-.2495-.413726-.0858-.1387-.1673-.280081-.2446-.424141s-.1332-.289494-.1677-.43631c-.031-.146896-.0319-.291948-.0028-.435153.0292-.143201.1082-.282467.2371-.417782.2478-.260094.5284-.369903.8419-.329426.3168.040401.6528.229695 1.0078.567902.3145.299695.5114.5928.5904.879315.0808.288193.0295.577864-.1541.869026l-.4772-.354129c.0545-.088882.0841-.178014.0888-.267407.0063-.091145-.0061-.180119-.0374-.266924-.0296-.088556-.0763-.174981-.1402-.25928-.0604-.084376-.131-.165075-.2119-.242091-.2144-.204261-.4035-.322436-.5674-.354521-.1639-.032082-.3086.017776-.4342.149582-.0736.077324-.1163.159049-.1279.245173-.0083.086044.0043.178448.0376.27722.0367.098683.09.206418.1597.323186.0715.115017.151.240998.2384.377944.0571.091325.1144.186081.1717.28427.059.09643.1103.195622.154.297577.0471.101869.0831.204867.1079.30899.0283.104044.0394.208507.0334.313377-.0061.104873-.0319.209367-.0774.31348-.0438.105792-.1143.209649-.2114.311578m8.632 8.840836c-.3361.217816-.6733.366939-1.0116.447385-.3371.082471-.6628.095413-.9771.038822-.3144-.056597-.6103-.182967-.8878-.379118-.2776-.196162-.5252-.462283-.743-.79837-.2297-.354428-.3761-.700698-.439-1.038815-.0609-.339447-.05-.661794.0328-.967053.0847-.30658.2345-.593128.4494-.859646.2149-.266514.4842-.50472.8081-.714619.3361-.217809.6699-.367654 1.0016-.44953.3316-.081873.6509-.093553.9578-.035032.309.057198.6002.185193.8736.383984.2769.199516.5268.471389.7499.815629.2218.342198.3665.679365.4343 1.01149.069.334157.0659.652904-.0094.956244-.074.305373-.2161.592693-.4263.861965-.2102.269269-.4813.511487-.8133.726664m-.3861-.595795c.2587-.167655.4722-.353734.6404-.55824.1696-.202473.2876-.417727.3538-.645779.0676-.226016.08-.461156.0374-.705432-.0426-.244268-.1451-.491674-.3074-.742221-.1664-.256647-.353-.455325-.5599-.596029-.2068-.140705-.4279-.22739-.6631-.260073-.2339-.030634-.4779-.009901-.732.062203-.2527.074147-.5085.195045-.7672.362695-.2586.167654-.4748.354032-.6485.559147-.1703.205823-.2923.423724-.366.653697-.0703.23069-.0872.470153-.0507.718388.0399.248949.141.498691.3033.749236.1743.268869.3679.471679.5809.608425.2143.138775.4391.220131.6745.244058.2387.024638.4851-.003471.7393-.084329.2555-.078819.5106-.200735.7652-.365746m3.6393 4.820865c-.2.099438-.4036.15871-.611.177807-.2041.020186-.4033-.004116-.5974-.072917-.1909-.067712-.3725-.182072-.5448-.343094-.1722-.161027-.3238-.37302-.4545-.635994l-.6713-1.349636-1.7897.890103-.3097-.622655 4.5934-2.284446.9614 1.933173c.1351.27167.2192.525311.2524.76094.0353.234543.0256.449458-.0291.644735-.0525.194195-.1478.367673-.286.520438-.136.151675-.3073.27886-.5137.381546m-.3179-.622673c.2913-.144843.4675-.343657.5289-.596452.0635-.253871.0066-.559024-.1707-.915452l-.6144-1.235533-1.8126.901458.6274 1.261613c.1784.358601.3885.58212.6304.670564.2429.090612.5133.061878.811-.086198m-2.4993 3.155744 4.8092-1.785889 1.3549 3.648672-.5324.19773-1.1129-2.99676-1.5427.572902 1.0368 2.791972-.5257.195192-1.0368-2.791972-1.6758.622337 1.1648 3.136697-.5325.19773zm2.4866 7.919936 3.5754-3.720501c-.1143.033482-.227.067839-.3383.10309-.0954.02878-.197.057851-.3047.08721-.1048.031131-.1985.056972-.2809.077518l-3.3067.824276-.1497-.600576 4.9777-1.240816.1955.784279-3.5966 3.755813c0-.000009.1137-.035843.341-.107501.0977-.029373.2037-.060798.3179-.094271.1166-.034071.2279-.064311.3339-.090725l3.2643-.813713.1515.607643-4.9778 1.240821zm2.4984 7.944417c-.2152.019086-.4172-.005643-.6061-.074174-.1886-.066127-.3571-.180327-.5055-.342608-.146-.162502-.2683-.373408-.3669-.632708-.0959-.257112-.1599-.566995-.1921-.929659-.0564-.635879.0109-1.141386.2018-1.516531.1909-.375144.4924-.629733.9045-.763762l.1937.659032c-.13.045647-.2462.108351-.3488.188117-.1026.079767-.1885.182427-.2578.307976-.0666.127751-.1139.281803-.1418.462166-.0278.180353-.0308.393841-.0089.640455.0182.205508.0518.392597.1009.561259.0515.16844.119.311101.2025.427979.0834.11687.185.204111.3046.261734.1223.059816.2632.08265.4228.0685.1668-.014805.2988-.065499.3959-.152086.0973-.084174.1737-.198168.2292-.341983.0554-.143824.0977-.313272.1267-.50835.029-.195079.0598-.411035.0924-.647859.0187-.145437.0398-.292296.0632-.440576.0261-.146082.0586-.287864.0975-.425347.0417-.135279.0924-.264056.1522-.386326.0598-.122275.1343-.230013.2235-.32321.0917-.093417.1994-.169986.3233-.229707.1262-.059938.274-.097413.4432-.112422.2418-.021451.4528.008567.633.090054.1829.083686.3377.207636.4644.371855.1266.164214.2258.362538.2976.594979.0718.23244.1199.48647.1444.7621.0281.31673.0267.589769-.0041.81913-.0284.229139-.0853.425479-.1707.589013-.0854.163528-.1978.297768-.3371.402731-.1367.107159-.2993.197118-.4878.269891l-.1802-.6712c.1203-.044788.2259-.104111.3168-.177966.0912-.071443.1648-.162042.2208-.271795.0561-.109758.0944-.241088.115-.393988.0207-.150494.0222-.326074.0044-.526744-.021-.236946-.0605-.434483-.1184-.59261-.0552-.155934-.1235-.280243-.2048-.372938-.0811-.090278-.1732-.152781-.2762-.187502-.1003-.032526-.2073-.043749-.321-.033667-.1523.013509-.2747.062134-.3672.145878-.0898.085947-.1616.197101-.2153.333448-.0537.136353-.0947.292287-.123.467813-.0283.175521-.0556.361925-.082.559206-.0223.160376-.0459.319645-.0709.477814-.0223.160375-.0538.314244-.0943.461611-.0381.147151-.0868.285489-.1459.415019-.059.131943-.1352.248355-.2286.349246-.0934.100878-.2067.182816-.34.245817-.1331.065413-.2928.10638-.4789.122895m1.0855 5.9890801c-.4004-.0107157-.7628-.0786895-1.0872-.2039212-.3245-.1228083-.6003-.2965149-.8274-.5211199-.2271-.224613-.3995-.496328-.5173-.81513-.1177-.318815-.1712-.678393-.1605-1.078751.0113-.422195.0867-.790471.2262-1.104819.142-.31429.3335-.573832.5745-.778634.2434-.204733.5292-.356129.8572-.45419.3279-.098062.6848-.141932 1.0706-.131608.4004.010711.7604.076196 1.0802.196446.3197.120249.5895.291366.8094.51336.2223.222049.3899.492416.5027.811096.1153.321171.1674.686789.1564 1.096853-.0109.40763-.0824.767509-.2146 1.079632-.1323.314549-.3153.575531-.5491.782954-.2338.209841-.5136.3662546-.8393.4692373-.3257.1029765-.6863.1491735-1.0818.1385948m.019-.7097221c.3081.008243.5894-.024295.8439-.09761.2545-.070898.4735-.181589.6572-.332064.1837-.148063.3271-.33484.4302-.560318.1032-.225491.1588-.487453.1668-.785895.0081-.305734-.0332-.575151-.1241-.808251-.0909-.233109-.224-.429713-.3994-.589802-.1755-.157672-.3884-.278701-.6386-.363098-.2504-.081974-.5296-.127083-.8378-.13533-.3081-.008244-.5918.023013-.8511.093779-.2569.073249-.4808.183809-.6718.331673-.1885.150353-.338.338179-.4485.563469-.108.227781-.1661.490894-.1741.789345-.0085.320284.0363.597075.1344.830377.0981.235726.2374.43006.4179.583008.1828.155433.4018.271779.6571.349031.2553.079669.5346.123562.8379.131686m-3.0878 3.6217514c.0409-.2785796.1169-.5372874.228-.776116.1111-.2388372.2586-.4416611.4425-.6084715.186-.1640598.4072-.2837033.6636-.3589267.2588-.0748716.5538-.0879896.8853-.0393489l3.2312.4742407-.1009.6880435-3.1737-.4657767c-.2569-.03772-.4804-.0361741-.6704.0046389-.1879.0435623-.3473.1182973-.4782.2242101-.1308.1059166-.2348.2378467-.312.3958041-.0751.160703-.1273.3407191-.1565.5400472-.0289.1969244-.0298.3869225-.0027.5699941.0271.1830629.0886.3490989.1845.498107.0959.1489993.2308.2742935.4048.3758876.176.1043359.3973.1760657.6639.215198l3.1268.4589047-.1004.6844393-3.1665-.4647236c-.3386-.0496974-.6245-.1493099-.8577-.2988375-.2311-.146782-.4143-.3282146-.5494-.5442977-.1351-.2161004-.2232-.4596392-.2644-.7306349-.0416-.2685995-.0408-.549395.0022-.8423817m-1.4146 6.81006442 2.4009-.74033558.4108-1.54465634-2.0584-.5474707.1788-.672049 4.9577 1.3186043-.6205 2.33281744c-.0749.28148096-.1738.5213926-.2969.71973617-.1214.20130309-.2627.35962559-.424.47496759-.1613.1153371-.3401.1883114-.5367.2189318-.1965.0306104-.405.0165974-.6255-.042044-.1572-.0418049-.3057-.106441-.4457-.1939044-.1406-.0851254-.2612-.1937906-.3616-.3259993-.1005-.13221372-.1762-.28672158-.2271-.46351991-.051-.17680702-.0668-.3769333-.0476-.60037014l-2.5101.83937587zm3.5589.84106069c.1501.03992296.2871.04875052.4111.02647273.124-.02229145.2354-.07302153.3343-.15219521.1013-.07856082.1883-.18353002.2609-.31490881.0749-.13076595.1361-.28528845.1836-.46355881l.4239-1.59391441-1.8297-.4866397-.4314 1.62206527c-.0512.19234763-.072.36513136-.0625.51835988.0118.15383639.0481.28655936.1088.39816021.0601.11394251.1421.20730846.2458.28010903.103.07513353.2214.13048388.3552.16604982m-.5926 4.65580149c.1064-.2711259.1557-.529492.1478-.7750923-.0087-.2433491-.0688-.4690162-.1801-.6769963-.1122-.2057277-.2716-.3908684-.4781-.5554246-.2066-.1645661-.4534-.3031735-.7403-.4158333-.287-.1126623-.5653-.1776027-.8349-.1948186-.2683-.014065-.5167.0174865-.7452.0946693-.2293.0794389-.4327.2055888-.6101.3784496-.1783.1751219-.3193.3948555-.4231.6592009-.0728.1852639-.1151.3629043-.1271.5329089-.0106.1731518.0042.3380325.0444.4946334.0393.1588619.0998.3103755.1814.4545483.0838.1450492.1845.2836903.3021.4159135l-.4719.4249013c-.1448-.1559425-.2692-.3273357-.3731-.5141785-.104-.1868514-.1787-.3883052-.2243-.6043687-.0464-.2138111-.0598-.442025-.0402-.6846491.0211-.239478.0839-.4925227.1886-.7591253.1517-.3863511.3457-.7012999.5822-.9448541.2378-.2404069.5049-.415868.8012-.5263857.2977-.1073667.617-.1501904.9579-.1284749.3409.0217192.691.1031068 1.0502.2441565.3728.1463713.6895.3293827.9501.5490442.2597.2219139.456.4723996.5889.7514719.1343.2822048.2012.5900888.2006.9236446.0017.3344359-.0702.6869234-.2157 1.0574636-.1996.5083517-.4658.8940807-.7985 1.1571782-.3328.2630964-.7261.3981164-1.18.4050676l.0375-.6932513c.1307-.0008407.262-.0197055.3938-.0566018.1341-.0360163.2633-.0961076.3876-.1802839.1244-.084185.2409-.1949069.3495-.3321657.1078-.1350152.2007-.3019302.2788-.5007477m-5.5301 1.1779811 4.5401 2.3885327-1.8122 3.4445262-.5026-.26445 1.4883-2.8290914-1.4564-.7662287-1.3867 2.6357581-.4962-.261062 1.3867-2.6357524-1.5821-.8323468-1.5579 2.9611982-.5027-.264446zm-18.0565 19.9216229.6377-.415122 1.9143 1.786268c.052.044329.1137.101226.1849.170681.0693.070773.1372.139515.2038.206231.0786.076261.1582.156244.2387.23994-.0413-.103464-.0809-.206569-.1188-.309314-.034-.087899-.068-.180171-.102-.276813-.0359-.095328-.0663-.179816-.0911-.25347l-.8353-2.471227.6347-.413137 3.0737 2.699801-.5432.353548-2.0183-1.879306c-.0447-.037525-.0966-.086232-.1559-.146126-.0579-.057864-.1152-.114705-.1718-.170534-.0632-.066002-.1288-.133369-.1967-.202116.034.087899.0657.174422.0951.259571.0247.07366.0502.148332.0763.224022s.0469.138866.0625.18953l.8777 2.656503-.5889.383345-2.0525-1.891805c-.0487-.043625-.103-.093708-.1629-.150241-.06-.056542-.1163-.109669-.169-.159394-.0613-.058572-.1232-.118166-.1858-.178769.034.087894.0667.173753.0981.257586.0268.072325.055.146693.0844.223096.0288.079759.0532.150716.0734.21288l.8771 2.62216-.5371.349576zm-4.7624 2.521612.6807-.340218 1.6996 1.991605c.0467.049939.1015.113447.1644.190531.0608.078164.1205.154151.1791.22798.0695.084673.1395.173152.21.265436-.0293-.107473-.0569-.214401-.083-.32078-.0238-.09119-.0472-.186718-.0699-.286581-.025-.09879-.0456-.186175-.0619-.262161l-.55-2.549938.6774-.338588 2.7481 3.030582-.5797.289753-1.7924-2.095827c-.0402-.042346-.0863-.096624-.1384-.162848-.051-.064053-.1015-.127018-.1514-.188897-.0554-.072741-.1129-.147104-.1726-.223095.0239.091185.0456.180739.0651.268674.0163.075986.0331.153061.0505.231221.0173.078155.0309.14329.0406.195394l.5712 2.738823-.6286.314166-1.825-2.11211c-.0434-.048858-.0917-.104767-.1448-.167729-.0532-.062973-.1032-.122137-.1498-.177504-.0543-.065138-.1091-.131362-.1645-.198671.0239.091182.0467.180202.0684.267044.0184.074901.038.151972.0586.231225.0195.082499.0358.155769.0488.219823l.5744 2.704625-.5732.286495zm-5.0161 1.96952.714-.263241 1.4701 2.166545c.0409.054771.0884.123928.1425.207468.0518.084375.1028.166477.1529.246307.0597.091803.1195.187449.1795.286937-.0173-.110046-.033-.21937-.0472-.327966-.0137-.093268-.0263-.190781-.038-.292548-.0139-.100936-.0248-.190057-.0326-.267373l-.2661-2.594977.7106-.261983 2.3979 3.314596-.6081.224201-1.5509-2.280353c-.0352-.046503-.0751-.105532-.1196-.177081-.0437-.069281-.0869-.137416-.1297-.204416-.047-.078388-.096-.158633-.147-.24073.0137.093259.0254.184658.0352.274202.0078.077316.016.15577.0247.23537.0086.079592.0149.14582.0189.198684l.2663 2.785041-.6593.243091-1.5815-2.300125c-.0378-.053337-.0796-.114218-.1256-.182657-.0459-.068438-.089-.132738-.1293-.192905-.0468-.070715-.094-.142568-.1416-.215556.0137.093256.0266.184235.0386.27294.0101.076478.021.155231.0328.236265.0103.084145.0184.158769.0243.223863l.2733 2.751412-.6013.221677zm-1.3361.379331.2186.766823-.6828.194602-.2186-.766819zm-4.1172 1.659204c.0659-.27224.1859-.482844.36-.631806.1718-.148455.4025-.253663.6921-.315619.4866-.104112.88-.017028 1.1803.261257.298.278795.518.75049.6602 1.415086.2875 1.343425-.0411 2.116199-.9858 2.318337-.2919.062466-.5466.061117-.7641-.004042-.2175-.065172-.4105-.20136-.5789-.408574l-.0072.001524c.0051.023736.0142.060269.0272.109613.0112.052209.0238.105363.0379.159454.0122.056956.0236.110363.0342.160208.0107.049846.0183.085447.0229.106814l.3192 1.491777-.6409.13712-.9606-4.489567c-.0198-.092568-.0388-.181579-.0571-.267021-.0207-.084945-.0398-.162763-.0574-.233458-.0176-.070704-.0332-.131905-.0468-.183613-.013-.049339-.023-.084434-.0299-.105284l.6123-.13103c.0099.022715.0217.05493.0356.096637.012.04459.0265.094863.0434.150807.0146.056459.0297.115288.0453.176494.016.063577.0307.126226.0439.187936zm2.2243.894259c-.0569-.265841-.1222-.490146-.1961-.672917-.0739-.182774-.1608-.328003-.2608-.435681-.0994-.105311-.2122-.174257-.3384-.206842-.1261-.032591-.271-.031362-.4348.00368-.1685.036062-.311.095098-.4275.177118-.1189.082521-.2081.193449-.2676.332783-.0615.142215-.0936.316651-.0966.523307-.0029.206652.0261.452389.087.737217.0584.272959.1302.498364.2155.676231.0857.180231.1849.319102.2976.41662.1127.097507.2385.157475.3773.179902.137.02529.2886.020166.4547-.015378.1567-.033521.2861-.08977.3884-.168736.1022-.07897.1784-.187106.2284-.324401.0501-.137309.0733-.307339.0696-.510094-.0056-.199875-.0378-.437479-.0967-.712809m-3.2879 3.489314.0926.619362-.6482.09685-.0925-.619362zm-.7059-4.724428.5822 3.896209-.6482.096854-.5822-3.896212zm-3.2659-1.160099c.225-.019384.4264-.013608.6045.017335.1781.030944.3326.084629.4634.161053.1306.074014.2397.166934.3273.278764.0876.111825.1546.238831.201.38101l-.6485.150898c-.0591-.177619-.1666-.308438-.3225-.392458-.1585-.086231-.3586-.11892-.6005-.098081-.1475.012717-.2799.044844-.3973.096372-.1174.051535-.2144.126892-.2911.226083-.077.096773-.1321.219691-.1656.368746-.0334.14906-.0412.327577-.0233.535553l.0544.631177.0073-.000622c.0398-.103322.092-.204057.1567-.302201.0624-.095524.1426-.182834.2405-.261925.0955-.078885.2091-.14593.3408-.20113.1319-.052782.2849-.086678.459-.101683.2491-.02147.4667.001199.6527.067997.1838.069424.3398.182672.4678.339737.1256.157273.2257.356952.3001.59904.0723.244707.1225.530294.1506.856768.0271.314382.0261.59951-.003.855393-.0315.256083-.0978.476189-.1989.660316-.1033.186751-.2441.334095-.4224.442044-.1805.110564-.4049.177422-.6734.200558-.2781.023966-.5242-.019381-.7384-.130036-.2164-.108045-.3903-.274555-.5218-.499542l-.0072.000628c.0052.060453.0098.12827.0139.20345.0016.075379.004.145824.0072.21133.001.068127.0012.126583.0005.175369-.0007.048779-.0031.077008-.0073.084685l-.6203.053459c.0005-.021975-.0003-.059669-.0024-.113075-.002-.050998-.0049-.112875-.0087-.185629-.0039-.072764-.0084-.153984-.0137-.243665-.0075-.087061-.0153-.17775-.0235-.272056l-.2585-2.999916c-.0473-.548954.0525-.972946.2996-1.27198.2445-.301243.6448-.475832 1.201-.523766m-.6919 3.589794c.0236.273264.0739.504022.1511.692282.0749.190875.166.343819.2734.458817.1073.114991.2264.196092.3572.243295.1283.047406.2578.065485.3883.054232.1669-.014382.3083-.055803.4242-.124263.1135-.068253.2047-.168698.2737-.301325.0668-.130008.111-.294612.1329-.493828.0196-.196593.0177-.430316-.0057-.701163-.0243-.282946-.063-.519587-.116-.70992-.0551-.187715-.1265-.337484-.2141-.44931-.0876-.11183-.1928-.18803-.3157-.228599-.1229-.04057-.2665-.053772-.431-.039601-.1306.011257-.2551.05001-.3737.116261-.1209.066459-.2258.16442-.3145.293878-.0887.129462-.1551.292321-.1991.488582-.044.196255-.0543.429807-.031.700662m-1.7109 2.885647.0149.626061-.6552.015565-.0149-.626055zm-.1135-4.775527.0936 3.938353-.6552.01557-.0936-3.938357zm-4.1313-.043009 1.2711 1.842556.4938-.380418.0473-1.40095.655.022114-.1824 5.400036-.655-.022114.1139-3.3732-1.7929 1.852026-.7678-.025922 1.6546-1.638126-1.6054-2.301924zm-2.2482-.266187c.3929.046413.6759.184949.8491.415603.1732.230655.2384.526763.1957.888346-.0305.257922-.1036.463146-.2194.615674-.1184.154647-.2616.269723-.4294.345229-.1702.075216-.3586.118938-.5654.131181-.2067.012236-.4153.00838-.6256-.011568l-.8803-.089332-.0252.21333c-.0191.1615-.0184.300892.0019.41818.0204.11728.0614.214997.123.293161.0617.078164.1437.13918.2461.183045.0996.045991.2206.077388.3628.094189.1253.014803.2398.018542.3433.011224.1032-.004918.1951-.027068.2755-.066447.0801-.036975.1479-.093737.2034-.170282.0552-.074135.0973-.171817.1263-.293046l.6725.14177c-.0424.151426-.1048.287025-.1874.406817-.0829.122189-.1913.223031-.3254.30252-.1364.079205-.3004.133149-.492.161848-.1943.030819-.424.030565-.6892-.000754-.4917-.058093-.8484-.215095-1.0699-.471007-.2218-.253515-.3075-.593595-.2571-1.020254l.1991-1.68495c.0227-.192842.0147-.341669-.0243-.446478-.0392-.102399-.1299-.161998-.2722-.1788-.0361-.004273-.0726-.006133-.1093-.005581-.0367.000545-.0724.002448-.107.005692l.0479-.40497c.0842-.009597.1679-.01438.251-.014345.0806-.000241.1668.005043.2584.015866.1229.014523.2271.04272.3126.084592.0828.043997.1481.101812.1958.173444.0475.074042.08.160985.0975.260823.0173.102249.0218.218888.0137.349905l.0217.002565c.0847-.117093.1752-.221273.2716-.312546.0939-.091563.2005-.166949.32-.226169.1191-.056802.2521-.09609.3988-.11786.1444-.02205.3082-.022257.4914-.000615m-.2059.470617c-.2073-.024492-.3925-.008483-.5556.048016-.1658.058628-.3063.141024-.4215.247177-.1176.105872-.21.225719-.2771.359551-.0672.133829-.1083.264625-.1234.392381l-.038.321803.714.069681c.1594.016383.3127.022271.4599.017661.1445-.002486.2745-.02745.3901-.074896.1156-.047455.2124-.121573.2903-.222354.0755-.101071.1236-.239588.1444-.415557.025-.212122-.0123-.38273-.1119-.511815-.102-.129374-.2591-.206592-.4712-.231648m-5.1668-1.284297-.5634 2.433285c-.0433.186807-.0676.345613-.073.476425-.0053.1308.0116.240609.0508.329424.0364.090628.0959.161717.1786.213264.0822.053914.1883.095929.3184.126045.1348.03121.2629.032214.3842.003019.1209-.026836.2321-.082061.3336-.165673.0987-.081797.1866-.192253.2636-.33137.0742-.137304.1334-.301729.1778-.493267l.515-2.224002.6349.147022-.699 3.018544c-.0186.080401-.0368.164616-.0547.252663-.0209.089853-.0391.174077-.0548.25266-.0163.080946-.0298.150067-.0406.207374-.0107.057297-.0169.094496-.0183.1116l-.603-.139628c.0004-.012373.0054-.04485.0151-.097417.0096-.052572.0212-.113419.0348-.18254.0106-.067313.0229-.13671.037-.20819.0135-.06913.0257-.127343.0367-.17463l-.0107-.002461c-.0825.097993-.1672.184252-.2543.258787-.087.074522-.1813.132393-.2831.173623-.1046.043032-.2175.067964-.3387.074792-.1241.008637-.2618-.004567-.4131-.039608-.2909-.067355-.5069-.178405-.6479-.333149-.1434-.155296-.219-.367121-.2266-.635476l-.0106-.002466c-.0825.097998-.1696.183712-.2614.257147-.0917.073432-.192.129932-.3009.169519-.1093.041941-.227.065773-.3529.071506-.1264.008088-.2653-.005387-.4166-.040428-.194-.044905-.3546-.10952-.4821-.193849-.1298-.084881-.2271-.192108-.2918-.321692-.0646-.129588-.0983-.28562-.1009-.468097-.0031-.180116.0227-.388406.0775-.624874l.5922-2.557431.6313.146202-.5634 2.43328c-.0433.186812-.0676.345618-.073.476425-.0053.130805.0116.240614.0508.329423.0363.090633.0959.161723.1786.213273.0822.053907.1883.095922.3184.126042.1348.03121.2626.0334.3834.006567.1203-.024472.2309-.07733.332-.158578.0986-.081797.1865-.192258.2636-.331372.0747-.13967.1347-.30764.1802-.503908l.515-2.224002zm-3.9596-1.071682-.2473.758044-.675-.220175.2473-.758049zm-5.6245.006944c.2565-.639859.5883-1.059927.9955-1.260201.4072-.200282.8788-.192951 1.415.021984.2546.102056.4668.231569.6367.388547.1698.156977.2929.342322.3694.556025.0742.2128.1011.452386.0806.718751-.0236.267717-.1.562669-.2292.884851-.5057 1.261681-1.3049 1.673519-2.3977 1.235518-.2838-.113796-.5125-.251208-.6859-.412245-.1757-.161947-.2972-.347959-.3647-.55805-.0697-.210995-.0887-.44742-.0569-.70927.0317-.261858.1108-.550492.2372-.86591m.6388.256028c-.1138.283879-.1852.527221-.2142.730034-.0313.201903-.0262.375214.0151.519928.0392.143814.111.261508.2155.353087.1036.093822.232.171443.3852.232859.1554.06231.3057.095098.4509.09836.1419.004608.2794-.031802.4125-.109226.1321-.075184.2588-.195656.3802-.361436.1191-.16669.2342-.38859.3453-.665709.1138-.283879.1834-.529253.2088-.736122.0245-.204613.016-.37928-.0253-.523995-.0437-.145617-.115-.264441-.2141-.356463-.1014-.092923-.2219-.167383-.3616-.223378-.1554-.062309-.3048-.097352-.4481-.10512-.1443-.005513-.2824.029318-.4146.104491-.1321.07518-.2593.196783-.3815.364816-.1223.168038-.2403.393995-.3541.677874m-.6532-2.458536-1.3192 2.718811c-.036.074247-.0715.150118-.1064.22761-.0381.078613-.0736.154486-.1064.227609-.0327.073124-.0634.141881-.0919.206275-.0286.064385-.054.12222-.0761.173517l-.5569-.270198c.0222-.051292.0481-.110223.0777-.176792.0263-.065455.0549-.132556.0855-.201313.0285-.069813.0581-.136387.0888-.199716.0275-.06221.0519-.115149.073-.158826l-.0131-.006357c-.1071.11526-.2075.210902-.301.286923-.0968.07714-.1923.132016-.2863.164616-.0951.034784-.1938.046274-.296.034466-.1032-.009632-.2171-.044644-.3416-.105041-.048-.023314-.0917-.049932-.1312-.079855-.0405-.027748-.0711-.05072-.092-.068924l.2623-.540489c.034.02999.0761.059886.1264.089686.0493.031979.1066.063866.1721.095656.1354.065688.266.091275.3918.076755.1235-.015584.2424-.063135.3565-.142656.1109-.078398.2171-.18605.3186-.322953.1004-.134722.1936-.290528.2794-.467413l.8964-1.847486zm-2.7472-3.1727c.1956.11265.3576.23256.486.359738.1285.127181.2245.259516.2882.397013.0649.135397.1013.274012.1093.415839.0079.141835-.0097.284328-.053.427494l-.6183-.24683c.053-.179559.0396-.348351-.0403-.506381-.0807-.161334-.2263-.302572-.4366-.423699-.1283-.073889-.2554-.123236-.3811-.148044-.1258-.024804-.2485-.018434-.3682.019097-.1184.03544-.2339.104751-.3466.207939-.1126.103193-.221.245236-.3252.426135l-.3161.548996.0063.003633c.0917-.062014.1921-.114815.3013-.15841.1058-.0427.2215-.068504.347-.077422.1235-.010131.2551-.000203.3946.029761.1384.032078.2833.091719.4348.178928.2167.124765.3822.267721.4967.428872.1111.162042.1744.344101.1896.546167.0132.200852-.0188.421885-.0961.663084-.0806.242091-.2026.505119-.3662.78908-.1574.273448-.3212.506832-.4914.700159-.1722.192105-.3524.334815-.5406.428122-.1915.094198-.3913.134624-.5992.121292-.2113-.01245-.4337-.085897-.6672-.220346-.2419-.139298-.4191-.315562-.5316-.52879-.1158-.21234-.1634-.448383-.1426-.708134l-.0063-.003633c-.0303.052582-.0653.110874-.1049.17487-.0418.062785-.0801.121967-.1149.17755-.0381.056472-.0714.10453-.0998.144179-.0284.039646-.0466.061411-.0544.065305l-.5396-.3107c.0131-.017715.0339-.049107.0627-.094171.0275-.042962.0605-.095389.099-.157283.0384-.061892.0811-.131144.128-.207763.0436-.075723.089-.154601.1363-.236634l1.5026-2.609321c.2749-.477476.5992-.768282.9729-.872414.3728-.10744.8011-.021871 1.2849.256722m-2.6197 2.550052c-.1369.23769-.2275.455813-.2718.654373-.0476.199446-.0602.377032-.0379.532764.0224.155724.0737.29032.154.403792.0782.112255.1741.201087.2877.266501.1452.083572.2848.130406.4191.140484.1321.00887.2644-.021397.3968-.090802.1291-.068514.2595-.178272.3913-.32927.1284-.150111.2605-.342954.3961-.578538.1418-.246102.2453-.462375.3106-.648823.0621-.185554.0891-.349239.0812-.491071-.008-.141827-.0508-.264506-.1284-.368029-.0776-.103527-.188-.196474-.331-.278837-.1136-.065409-.238-.104811-.3731-.118212-.1372-.014605-.2793.005848-.4261.061357s-.2943.151211-.4426.287098-.2902.321629-.4259.557213" fill="#fff"/>
      <path d="m4056.7725 1480.6669c0 579.9083-470.6503 1050.5586-1050.5586 1050.5586-579.9084 0-1050.5586-470.6503-1050.5586-1050.5586 0-579.90837 470.6502-1050.55862 1050.5586-1050.55862 579.9083 0 1050.5586 470.65025 1050.5586 1050.55862z" style="opacity:.3;fill:none;stroke:#fff;stroke-width:9.774646;stroke-linecap:round;stroke-linejoin:round;filter:url(#g)" transform="matrix(.05674937 0 0 .056649 -2291.1082 -96.892916)"/>
      <path d="m587.9088 485.6666c0 80.85261-65.61951 146.47212-146.47212 146.47212-80.85262 0-146.47213-65.61951-146.47213-146.47212 0-80.85262 65.61951-146.47213 146.47213-146.47213 80.85261 0 146.47212 65.61951 146.47212 146.47213z" fill="url(#o)" fill-rule="evenodd" opacity=".6" transform="matrix(.2879784 -.01682102 -.01682102 -.2879784 -2238.8955 133.27137)"/>
    </g>
  </g>
  <g transform="translate(53.74013 .000004)"/>
</svg>
